<svg id="Layer_1" data-name="Layer 1" xmlns="http://www.w3.org/2000/svg" xmlns:xlink="http://www.w3.org/1999/xlink" viewBox="0 0 1070.3 973.25"><defs><style>.cls-1{fill:url(#radial-gradient);}.cls-2{fill:url(#linear-gradient);}.cls-3{fill:url(#linear-gradient-2);}.cls-4{fill:url(#linear-gradient-3);}.cls-5{fill:url(#linear-gradient-4);}.cls-6{fill:url(#linear-gradient-5);}.cls-7{fill:url(#linear-gradient-6);}.cls-8{fill:url(#linear-gradient-7);}.cls-9{fill:url(#linear-gradient-8);}.cls-10{fill:#282828;}.cls-11{fill:#7c3333;}</style><radialGradient id="radial-gradient" cx="491.36" cy="474.34" r="331.23" gradientUnits="userSpaceOnUse"><stop offset="0" stop-color="#e0effc"/><stop offset="1" stop-color="#a2effc"/></radialGradient><linearGradient id="linear-gradient" x1="612.81" y1="1030.99" x2="612.81" y2="775.38" gradientUnits="userSpaceOnUse"><stop offset="0" stop-color="#a2dcfc"/><stop offset="1" stop-color="#a2effc"/></linearGradient><linearGradient id="linear-gradient-2" x1="450.51" y1="1025.73" x2="450.51" y2="780.58" gradientUnits="userSpaceOnUse"><stop offset="0" stop-color="#a2ccfc"/><stop offset="1" stop-color="#a2effc"/></linearGradient><linearGradient id="linear-gradient-3" x1="1074.08" y1="277.15" x2="740.04" y2="277.15" xlink:href="#linear-gradient"/><linearGradient id="linear-gradient-4" x1="4.67" y1="464.83" x2="200.19" y2="464.83" xlink:href="#linear-gradient-2"/><linearGradient id="linear-gradient-5" x1="335.47" y1="57.74" x2="335.47" y2="218.98" xlink:href="#linear-gradient-2"/><linearGradient id="linear-gradient-6" x1="638.17" y1="84.49" x2="638.17" y2="207.44" xlink:href="#linear-gradient-2"/><linearGradient id="linear-gradient-7" x1="436.77" y1="324.39" x2="436.77" y2="464.63" gradientUnits="userSpaceOnUse"><stop offset="0" stop-color="#fff"/><stop offset="1" stop-color="#ffffef"/></linearGradient><linearGradient id="linear-gradient-8" x1="636.9" y1="315.35" x2="636.9" y2="455.59" xlink:href="#linear-gradient-7"/></defs><title>alien1</title><g id="Layer_3" data-name="Layer 3"><path class="cls-1" d="M819.62,474.57c36.61,178-147.58,329.28-329.4,329.28s-353.8-149-329.51-329.51c24.07-178.2,147.58-329.51,329.51-329.51S783.46,298.4,819.62,474.57Z" transform="translate(-4.41 -57.74)"/><path class="cls-2" d="M511.92,803.18s11-1.59,12.32,6.55c1.58,8.14,1.58,69.5-6.1,88.37s-32.66,45.42-17.29,60.68,66.44,11,89.94,25.65c0,0,59.67,16.61,102.38,39.21,1.59.68,2.83,1.58,4.18,2.15,39.67,21.69-9.83-30.06-48.92-52.43a2.27,2.27,0,0,1,1.35-4.18c23.51,1.92,77,5.08,79.78-4.64C733.29,952,650,947.48,624.36,917s-.46-67.8-4.41-102.15,8.59-39.44,8.59-39.44" transform="translate(-4.41 -57.74)"/><path class="cls-3" d="M365.7,780.58s16.27,18.19,14.69,40.79,5.31,78.31,0,97.18c-5.31,19.1-36.62,28.48-33.79,41.7s86.22,18.19,111.87,35,92.77,38,94.92,27.8c1.81-8.37-44.75-39.21-60.91-49.72a2.54,2.54,0,0,1,.91-4.64c11.64-1.8,36.38-5.53,56.61-7a4.81,4.81,0,0,0,1.81-9.16c-14.46-7.23-40.34-18-82.49-28,0,0-14-6.33-12.88-64.3,0,0,1.58-50.62,10.51-57" transform="translate(-4.41 -57.74)"/><path class="cls-4" d="M740,282s95.6,24.07,135,41c0,0,81.14-47.58,93.68-65.09s11-15.37,12.77-29.61,2.82-63.62,8.36-48.93,4,43.85,8.82,53.68,45.65-44.53,52.2-51.53-16.5,43.39-28.47,55.93,49.38-28.47,52.2-23.05-34,35-46.67,43.39-63.16,55.94-92.77,82.83-18.19,38-37.29,36.84-95.6-23.84-113.12-15.59" transform="translate(-4.41 -57.74)"/><path class="cls-5" d="M199.92,340.78,96.42,462.25s-21.93,23.05-32.89,27-30.28,9.83-36.16,17.06S1.49,512.88,4.77,518s30.74-5.54,37.29-3.28,18.65-1.13,21.47-2.14-7.68,14.91-11.64,24.75-7.68,14.23-9.38,29.6,4,2.83,11.64-6.1,8.37-15.37,14.24-22.6,6.1-17.06,9.83-14.24S77.54,536,81.5,544.29s-.68,19.78,6.1,27,16.5,23.5,14.47,15.37c-3.28-14.47-4.19-66.9,0-71.31s53.9-86.56,66.44-84.63" transform="translate(-4.41 -57.74)"/><path class="cls-6" d="M278,58.39a3.28,3.28,0,0,0-5.09,3.5c7.46,29.83,31.76,130.06,27.46,149.5-5.31,23.05,97.75-13.79,97.75-13.79L377.9,166.08C377.79,166.08,323,91.27,278,58.39Z" transform="translate(-4.41 -57.74)"/><path class="cls-7" d="M583.9,159.86s84.41-50.62,103.06-73-16.27,120.58-16.27,120.58" transform="translate(-4.41 -57.74)"/><path class="cls-8" d="M513.5,389c0,38.19-34.46,75.6-76.73,75.6s-76.72-37.52-76.72-75.6,34.46-64.64,76.72-64.64S513.5,350.83,513.5,389Z" transform="translate(-4.41 -57.74)"/><path class="cls-9" d="M718.71,380c0,38.19-36.61,75.6-81.81,75.6s-81.81-37.52-81.81-75.6,36.61-64.64,81.81-64.64S718.71,341.91,718.71,380Z" transform="translate(-4.41 -57.74)"/><path class="cls-10" d="M469,385.52c0,9.38,5.65,17.07,12.88,17.07s12.88-7.69,12.88-17.07-10.05-17.06-17.29-17.06S469,376,469,385.52Z" transform="translate(-4.41 -57.74)"/><path class="cls-10" d="M680.86,377.39c0,9.38,5.65,17.06,12.88,17.06s12.88-7.68,12.88-17.06-10.06-17.06-17.29-17.06C682.33,360.1,680.86,367.78,680.86,377.39Z" transform="translate(-4.41 -57.74)"/></g><g id="Layer_4" data-name="Layer 4"><path class="cls-11" d="M467.5,566.9a136.34,136.34,0,0,0,22.3,7.6c7.6,1.9,15.3,3.5,23.1,4.7a206.72,206.72,0,0,0,47.2,1.2,111.31,111.31,0,0,0,11.6-1.4c3.9-.6,7.8-1.2,11.6-2.1s7.8-1.7,11.4-2.7c1.9-.4,3.9-1.2,5.6-1.6,1.9-.6,3.9-1,5.6-1.7a273.34,273.34,0,0,0,43.5-18.8c-3.5,1.9-6.8,4.1-10.3,5.8s-7,3.7-10.7,5.4l-5.4,2.5c-1.7.8-3.7,1.6-5.4,2.3-3.7,1.6-7.4,2.9-11.1,4.3a184.58,184.58,0,0,1-22.9,6.2,97.76,97.76,0,0,1-11.6,2.1c-3.8.5-8,1.2-11.8,1.4a193.59,193.59,0,0,1-47.5-1.7C497.2,578.1,481.6,573.8,467.5,566.9Z" transform="translate(-4.41 -57.74)"/></g></svg>