<svg id="Layer_1" data-name="Layer 1" xmlns="http://www.w3.org/2000/svg" xmlns:xlink="http://www.w3.org/1999/xlink" viewBox="0 0 697.48 1053.08"><defs><style>.cls-1{fill:#e56565;}.cls-2{fill:#f4c551;}.cls-3{fill:url(#linear-gradient);}.cls-4{fill:none;stroke:#5b3737;stroke-miterlimit:10;stroke-width:3px;}.cls-5{fill:#5b3737;}</style><linearGradient id="linear-gradient" x1="516.53" y1="774.35" x2="516.53" y2="839.06" gradientUnits="userSpaceOnUse"><stop offset="0" stop-color="#bb5e5e"/><stop offset="1" stop-color="#e55e5e"/></linearGradient></defs><title>balloon</title><path class="cls-1" d="M514.72,14.5C326.42,14.5,128.37,198.64,182.41,448,218.92,616.53,267.21,660.93,368,802.87H652.87c12.64-11.69,25.35-24.52,37.87-38.36-3.44-5.4-4.32-12.39-.26-19.64,29-51.86,69.1-96.25,101.66-145.78a22,22,0,0,1,11.2-8.75c19.11-44.65,32.75-92.56,37.94-142.33C866.47,206.32,703,14.5,514.72,14.5Z" transform="translate(-173.37 -14.5)"/><path class="cls-2" d="M526.34,14.5h-.93C525.54,15.66,579.12,481,538,802.87h131.2c82.54-149.62,168-210.4,194.88-354.86C909.07,206.32,721.11,14.5,526.34,14.5Z" transform="translate(-173.37 -14.5)"/><path class="cls-2" d="M438.71,802.87H565.06c0-.64-.08-1.28-.18-1.92-14.72-96.45,37.23-211.8,36.83-320.33-.61-165.88-46.64-321-37.22-408.58,5-46.42-39.12-57.25-39.08-57.53H525C407,14.92,304.65,206.57,320.44,448,330,594.11,385.29,724.19,438.71,802.87Z" transform="translate(-173.37 -14.5)"/><path class="cls-1" d="M538,802.87H598.8C644,724.19,690.8,594.11,698.89,448c13.37-241.44-73.26-433.09-173.16-433.5h-.32C525.54,15.66,579.12,481,538,802.87Z" transform="translate(-173.37 -14.5)"/><path class="cls-3" d="M665.05,802.87c0,20-66.5,36.19-148.52,36.19S368,822.86,368,802.87s66.5-28.52,148.53-28.52S665.05,782.88,665.05,802.87Z" transform="translate(-173.37 -14.5)"/><line class="cls-4" x1="262.01" y1="764.25" x2="262.01" y2="972.52"/><line class="cls-4" x1="442.18" y1="764.25" x2="442.18" y2="972.52"/><path class="cls-5" d="M236.72,899.63H465.4a11.25,11.25,0,0,1,11.25,11.25v107a35.21,35.21,0,0,1-35.21,35.21H260.68a35.21,35.21,0,0,1-35.21-35.21v-107A11.25,11.25,0,0,1,236.72,899.63Z"/></svg>