<svg xmlns="http://www.w3.org/2000/svg" viewBox="0 0 621.49 316.81"><defs><style>.cls-1{fill:#ededed;}.cls-2{fill:#f5f5f5;}</style></defs><title>Cloud1</title><g id="Object"><path class="cls-1" d="M631.55,378a67.21,67.21,0,0,0-8.32.53,94.42,94.42,0,0,0-107-49.74,134.69,134.69,0,0,0-269.31,2A94.37,94.37,0,0,0,123.1,420.42c0,1.72.05,3.43.14,5.12h-.14a44.63,44.63,0,1,0,0,89.25H631.55a68.41,68.41,0,1,0,0-136.82Z" transform="translate(-78.47 -197.98)"/><path class="cls-2" d="M304.54,358.19c-13.14-10.73-33-12.34-47.7-3.88s-23.29,26.44-20.61,43.2c5.27-13.1,15.38-22.38,27.37-29.84S290.46,357.13,304.54,358.19Z" transform="translate(-78.47 -197.98)"/><path class="cls-2" d="M138.77,368.35a89.7,89.7,0,0,1,38.73-22.14c29.11-7.8,62,.39,84.06,20.93-3.22-44.88,13.92-91.21,46-122.77s81.48-45.84,124.36-32.2c14.6,4.64,27.88,12.12,40.38,21a134.66,134.66,0,0,0-225.41,97.59,94.36,94.36,0,0,0-108.11,37.6Z" transform="translate(-78.47 -197.98)"/><path class="cls-2" d="M700,446.38A68.41,68.41,0,0,0,631.55,378a67.21,67.21,0,0,0-8.32.53,94.36,94.36,0,0,0-106.16-49.94c-24,10.33-44.87,28.13-58.12,50.69,19-24.62,50.82-37.44,81.7-33.53s59,25.08,71.28,53.67c18.6-6.19,39.66-.48,54.53,12.29S689.65,444,690.33,463.6a85.37,85.37,0,0,1-1.93,20.85A68.08,68.08,0,0,0,700,446.38Z" transform="translate(-78.47 -197.98)"/></g></svg>