<svg xmlns="http://www.w3.org/2000/svg" viewBox="0 0 687.19 334.26"><defs><style>.cls-1{fill:#ededed;}.cls-2{fill:#f5f5f5;}</style></defs><title>Cloud2</title><g id="Object"><path class="cls-1" d="M320.49,483.7a167.18,167.18,0,0,0,178.42,3.94,112.07,112.07,0,0,0,122.15,10.54,80.26,80.26,0,1,0,48.18-147.1,112.12,112.12,0,0,0-99.3-63.78,167.19,167.19,0,0,0-312.54-4.52,116.27,116.27,0,0,0-11.72-.59A114.68,114.68,0,0,0,135.15,366.4c-1.37-.08-2.74-.13-4.12-.13a72.62,72.62,0,1,0,50,125.26,114.57,114.57,0,0,0,139.47-7.83Z" transform="translate(-58.41 -177.24)"/><path class="cls-2" d="M331.1,323.17c-14.39-17.93-40.25-25.68-62.13-18.62S230.66,333,229.47,356c10.68-15.87,26.7-25.31,44.7-31.81S312.74,317.79,331.1,323.17Z" transform="translate(-58.41 -177.24)"/><path class="cls-2" d="M481.06,191.79a167.23,167.23,0,0,0-223.66,91,116.27,116.27,0,0,0-11.72-.59A114.68,114.68,0,0,0,135.15,366.4c-1.37-.08-2.74-.13-4.12-.13a72.6,72.6,0,0,0-63.56,37.49A65.12,65.12,0,0,1,88.2,389.49c18.39-7.8,41.64-5.15,55.72,9,5.07-28.69,21.25-53,45-69.92a114,114,0,0,1,82.92-19.67c14.18-49.09,53.14-91,100.42-110.42C406.45,184.44,445.3,182.37,481.06,191.79Z" transform="translate(-58.41 -177.24)"/><path class="cls-2" d="M736.81,394.71a80.25,80.25,0,0,0-67.57-43.63,112.13,112.13,0,0,0-98.64-63.76c-28.63,7.45-55.19,23-75,45.07,21.8-16.73,50.15-21.52,77.27-17.1a102.32,102.32,0,0,1,67.52,43.25c23.22-3.85,48.62,2.88,69.18,14.33A105.33,105.33,0,0,1,736.81,394.71Z" transform="translate(-58.41 -177.24)"/></g></svg>