<svg xmlns="http://www.w3.org/2000/svg" xmlns:xlink="http://www.w3.org/1999/xlink" viewBox="0 0 1366 726.1"><defs><style>.cls-1{fill:url(#linear-gradient);}.cls-2{fill:url(#linear-gradient-2);}.cls-3{fill:url(#linear-gradient-3);}.cls-4{fill:url(#linear-gradient-4);}.cls-5{fill:url(#linear-gradient-5);}.cls-6{fill:url(#linear-gradient-6);}.cls-7{fill:url(#linear-gradient-7);}.cls-8{fill:url(#linear-gradient-8);}</style><linearGradient id="linear-gradient" x1="459.85" y1="615.73" x2="459.85" y2="135.05" gradientUnits="userSpaceOnUse"><stop offset="0" stop-color="#dafffe"/><stop offset="1" stop-color="#dad8fe"/></linearGradient><linearGradient id="linear-gradient-2" x1="698.96" y1="526.73" x2="698.96" y2="42.9" xlink:href="#linear-gradient"/><linearGradient id="linear-gradient-3" x1="959.52" y1="207.1" x2="959.52" y2="588.1" gradientUnits="userSpaceOnUse"><stop offset="0" stop-color="#7f6c1c"/><stop offset="0.56" stop-color="#6a530d"/><stop offset="1" stop-color="#563c00"/></linearGradient><linearGradient id="linear-gradient-4" x1="683" y1="726.1" x2="683" y2="554.1" gradientUnits="userSpaceOnUse"><stop offset="0" stop-color="#9ad9ec"/><stop offset="1" stop-color="#72a8ec"/></linearGradient><linearGradient id="linear-gradient-5" x1="624.36" y1="622.23" x2="624.36" y2="324" gradientUnits="userSpaceOnUse"><stop offset="0" stop-color="#6fccb0"/><stop offset="1" stop-color="#84e0b0"/></linearGradient><linearGradient id="linear-gradient-6" x1="266.45" y1="630.88" x2="266.45" y2="529.85" gradientUnits="userSpaceOnUse"><stop offset="0" stop-color="#84e2b0"/><stop offset="1" stop-color="#84fab0"/></linearGradient><linearGradient id="linear-gradient-7" x1="1097.46" y1="631.16" x2="1097.46" y2="528.12" xlink:href="#linear-gradient-6"/><linearGradient id="linear-gradient-8" x1="964.08" y1="327" x2="964.08" y2="250" gradientUnits="userSpaceOnUse"><stop offset="0" stop-color="#e4cb84"/><stop offset="1" stop-color="#daaa35"/></linearGradient></defs><title>landing</title><g id="Layer_1" data-name="Layer 1"><path class="cls-1" d="M440.12,145.41,141.44,578.12a24,24,0,0,0,19.74,37.61H758.53a24,24,0,0,0,19.73-37.61L479.59,145.41A24,24,0,0,0,440.12,145.41Z" transform="translate(0 -42.9)"/><path class="cls-2" d="M682.63,51.47,376.06,495.62a19.84,19.84,0,0,0,16.33,31.11h613.14a19.84,19.84,0,0,0,16.33-31.11L715.28,51.47A19.84,19.84,0,0,0,682.63,51.47Z" transform="translate(0 -42.9)"/><polygon class="cls-3" points="1039.44 207.1 879.61 207.1 636.02 588.1 1283.02 588.1 1039.44 207.1"/><rect class="cls-4" y="554.1" width="1366" height="172"/><path class="cls-5" d="M1064.15,594.92S930,476.53,797.07,426.27,594.63,288.22,469,339.6c-118.74,48.56-217.49,243-279.26,255.32-56.1,11.17,359.85,23.61,441.24,27.17,39.57,1.72,136.83-12.66,224.17-16.56C958.38,600.93,1050.94,605.81,1064.15,594.92Z" transform="translate(0 -42.9)"/><path class="cls-6" d="M70,598s47-38.9,89.52-40.12,51.81-18.3,65.28-18.3,70.56-19.34,96.46-3.48,42.17,24.46,69.11,37.88,64.24,24.56,72.53,42c0,0-53.88,19-136.77,14.09s-87-13.41-115-13.41S102.12,625.68,70,598Z" transform="translate(0 -42.9)"/><path class="cls-7" d="M1339.76,597s-52.88-40.65-133.37-53.26-98.78-21.15-153.66-11.4-63,28.08-102,47.3-70,.9-95.56,24.36c0,0,52.12,8.59,133.83,13.46s157.63,21.77,244.22,9.06S1305,618.66,1339.76,597Z" transform="translate(0 -42.9)"/><path class="cls-8" d="M853.55,290.73v14.81A18.45,18.45,0,0,0,872,324h0a13,13,0,0,0,13-13V299a8,8,0,0,1,8-7.95h5.59a9.47,9.47,0,0,1,9.46,9.46v2A10.5,10.5,0,0,0,918.5,313h0A10.5,10.5,0,0,0,929,302.5v-12A12.5,12.5,0,0,1,941.5,278h0A12.5,12.5,0,0,1,954,290.5v1A15.5,15.5,0,0,0,969.5,307h0A15.5,15.5,0,0,0,985,291.5h0a9.5,9.5,0,0,1,9.5-9.5h6A11.55,11.55,0,0,1,1012,293.55V311a16,16,0,0,0,16,16h0a16,16,0,0,0,16-16v-8.54a7.46,7.46,0,0,1,7.46-7.46h9a4.49,4.49,0,0,1,4.5,4.5h0a4.49,4.49,0,0,0,4.5,4.5h5.11L1039,250H880Z" transform="translate(0 -42.9)"/></g></svg>