<?xml version="1.0" encoding="utf-8"?>
<!-- Generator: Adobe Illustrator 23.0.0, SVG Export Plug-In . SVG Version: 6.00 Build 0)  -->
<svg version="1.1" xmlns="http://www.w3.org/2000/svg" xmlns:xlink="http://www.w3.org/1999/xlink" x="0px" y="0px"
	 viewBox="0 0 1893 989" style="enable-background:new 0 0 1893 989;" xml:space="preserve">
<style type="text/css">
	.st0{fill:url(#SVGID_1_);}
	.st1{fill:url(#SVGID_2_);}
	.st2{fill:url(#SVGID_3_);}
	.st3{fill:url(#SVGID_4_);}
	.st4{fill:url(#SVGID_5_);}
	.st5{fill:url(#SVGID_6_);}
	.st6{fill:url(#SVGID_7_);}
</style>
<g id="Layer_2">
</g>
<g id="Layer_1">
	<linearGradient id="SVGID_1_" gradientUnits="userSpaceOnUse" x1="701.4745" y1="731.7267" x2="701.4745" y2="251.0531">
		<stop  offset="0" style="stop-color:#DAFFFE"/>
		<stop  offset="1" style="stop-color:#DAD8FE"/>
	</linearGradient>
	<path class="st0" d="M681.74,261.41L383.06,694.12c-10.98,15.91,0.41,37.6,19.74,37.6h597.35c19.33,0,30.72-21.7,19.74-37.6
		L721.21,261.41C711.68,247.6,691.27,247.6,681.74,261.41z"/>
	<linearGradient id="SVGID_2_" gradientUnits="userSpaceOnUse" x1="940.5812" y1="642.7267" x2="940.5812" y2="158.9028">
		<stop  offset="0" style="stop-color:#DAFFFE"/>
		<stop  offset="1" style="stop-color:#DAD8FE"/>
	</linearGradient>
	<path class="st1" d="M924.26,167.47L617.68,611.62c-9.08,13.16,0.34,31.11,16.33,31.11h613.14c15.99,0,25.41-17.95,16.33-31.11
		L956.91,167.47C949.02,156.05,932.14,156.05,924.26,167.47z"/>
	<linearGradient id="SVGID_3_" gradientUnits="userSpaceOnUse" x1="1201.144" y1="366" x2="1201.144" y2="747">
		<stop  offset="0" style="stop-color:#7F6C1C"/>
		<stop  offset="0.5573" style="stop-color:#6A530D"/>
		<stop  offset="1" style="stop-color:#563C00"/>
	</linearGradient>
	<polygon class="st2" points="1281.06,366 1121.23,366 877.64,747 1524.65,747 	"/>
	<linearGradient id="SVGID_4_" gradientUnits="userSpaceOnUse" x1="865.9817" y1="768.2296" x2="865.9817" y2="470">
		<stop  offset="0" style="stop-color:#6FCCB0"/>
		<stop  offset="1" style="stop-color:#84E0B0"/>
	</linearGradient>
	<path class="st3" d="M1305.77,740.92c0,0-134.15-118.39-267.07-168.65c-132.93-50.26-202.44-138.05-328.05-86.67
		c-118.74,48.57-217.5,243.03-279.27,255.33c-56.1,11.17,359.85,23.61,441.24,27.16c39.57,1.73,136.83-12.66,224.17-16.55
		C1200,746.93,1292.56,751.81,1305.77,740.92z"/>
	<linearGradient id="SVGID_5_" gradientUnits="userSpaceOnUse" x1="508.0732" y1="746.8752" x2="508.0732" y2="645.8546">
		<stop  offset="0" style="stop-color:#84E2B0"/>
		<stop  offset="1" style="stop-color:#84FAB0"/>
	</linearGradient>
	<path class="st4" d="M311.62,714c0,0,47.04-38.9,89.52-40.12c42.48-1.22,51.81-18.29,65.28-18.29c13.47,0,70.56-19.34,96.46-3.49
		c25.9,15.85,42.17,24.46,69.11,37.88c26.94,13.42,64.24,24.57,72.53,42.01c0,0-53.88,18.97-136.77,14.09
		c-82.89-4.88-87.04-13.41-115.01-13.41C424.77,732.66,343.74,741.68,311.62,714z"/>
	<linearGradient id="SVGID_6_" gradientUnits="userSpaceOnUse" x1="1340.0854" y1="757.1613" x2="1340.0854" y2="654.1164">
		<stop  offset="0" style="stop-color:#84E2B0"/>
		<stop  offset="1" style="stop-color:#84FAB0"/>
	</linearGradient>
	<path class="st5" d="M1582.38,723c0,0-52.88-40.65-133.37-53.26c-80.49-12.62-98.78-21.15-153.66-11.4
		c-54.88,9.76-62.98,28.08-102,47.3c-39.02,19.22-69.95,0.9-95.56,24.36c0,0,52.12,8.59,133.83,13.46
		c81.71,4.88,157.63,21.76,244.22,9.05S1547.6,744.66,1582.38,723z"/>
	<linearGradient id="SVGID_7_" gradientUnits="userSpaceOnUse" x1="1205.6987" y1="443" x2="1205.6987" y2="366">
		<stop  offset="0" style="stop-color:#E4CB84"/>
		<stop  offset="1" style="stop-color:#DAAA35"/>
	</linearGradient>
	<path class="st6" d="M1095.17,406.73v14.81c0,10.19,8.26,18.46,18.46,18.46h0c7.18,0,13-5.82,13-13v-12.05
		c0-4.39,3.56-7.95,7.95-7.95h5.59c5.23,0,9.46,4.24,9.46,9.46v2.04c0,5.8,4.7,10.5,10.5,10.5l0,0c5.8,0,10.5-4.7,10.5-10.5v-12
		c0-6.9,5.6-12.5,12.5-12.5l0,0c6.9,0,12.5,5.6,12.5,12.5v1c0,8.56,6.94,15.5,15.5,15.5l0,0c8.56,0,15.5-6.94,15.5-15.5v0
		c0-5.25,4.25-9.5,9.5-9.5h5.95c6.38,0,11.55,5.17,11.55,11.55V427c0,8.84,7.16,16,16,16l0,0c8.84,0,16-7.16,16-16v-8.54
		c0-4.12,3.34-7.46,7.46-7.46h9.04c2.49,0,4.5,2.01,4.5,4.5l0,0c0,2.49,2.01,4.5,4.5,4.5h5.11l-35.61-54h-159L1095.17,406.73z"/>
</g>
</svg>
