<svg id="Layer_1" data-name="Layer 1" xmlns="http://www.w3.org/2000/svg" xmlns:xlink="http://www.w3.org/1999/xlink" viewBox="0 0 597.96 397.66"><defs><style>.cls-1{fill:url(#linear-gradient);}</style><linearGradient id="linear-gradient" x1="293.34" y1="252.56" x2="734.02" y2="693.25" gradientTransform="matrix(1, 0, 0, -1, 0, 995.5)" gradientUnits="userSpaceOnUse"><stop offset="0" stop-color="#cd9cf2"/><stop offset="1" stop-color="#fed6e3"/></linearGradient></defs><title>wiggle3</title><path class="cls-1" d="M616,373.11H580.69A22.09,22.09,0,0,0,558.6,395.2h0a22.09,22.09,0,0,0,22.09,22.09H839.91A22.09,22.09,0,0,1,862,439.38h0a22.09,22.09,0,0,1-22.09,22.09H580.69a22.09,22.09,0,0,0-22.09,22.1h0a22.09,22.09,0,0,0,22.09,22.09H675a22.1,22.1,0,0,1,22.1,22.09h0A22.1,22.1,0,0,1,675,549.84H580.69a22.09,22.09,0,0,0-22.09,22.09h0A22.09,22.09,0,0,0,580.69,594H616a22.09,22.09,0,0,1,22.09,22.09h0A22.09,22.09,0,0,1,616,638.21h-32.4a22.09,22.09,0,0,0-22.09,22.09h0a22.09,22.09,0,0,0,22.09,22.09H730.92A22.1,22.1,0,0,1,753,704.49h0a22.09,22.09,0,0,1-22.09,22.09H286.13A22.09,22.09,0,0,1,264,704.49V351a22.09,22.09,0,0,1,22.09-22.09H616A22.09,22.09,0,0,1,638.13,351h0A22.1,22.1,0,0,1,616,373.11Z" transform="translate(-264.04 -328.92)"/></svg>