<svg id="Layer_1" data-name="Layer 1" xmlns="http://www.w3.org/2000/svg" xmlns:xlink="http://www.w3.org/1999/xlink" viewBox="0 0 597.96 397.66"><defs><style>.cls-1{fill:url(#linear-gradient);}</style><linearGradient id="linear-gradient" x1="298.34" y1="-162.44" x2="739.02" y2="278.25" gradientTransform="translate(0 476)" gradientUnits="userSpaceOnUse"><stop offset="0" stop-color="#cd9cf2"/><stop offset="1" stop-color="#8ec5fc"/></linearGradient></defs><title>wiggle4</title><path class="cls-1" d="M621,683.39H585.69A22.09,22.09,0,0,1,563.6,661.3h0a22.09,22.09,0,0,1,22.09-22.09H844.91A22.09,22.09,0,0,0,867,617.12h0A22.09,22.09,0,0,0,844.91,595H585.69a22.09,22.09,0,0,1-22.09-22.1h0a22.09,22.09,0,0,1,22.09-22.09H680a22.1,22.1,0,0,0,22.1-22.09h0A22.1,22.1,0,0,0,680,506.66H585.69a22.09,22.09,0,0,1-22.09-22.09h0a22.09,22.09,0,0,1,22.09-22.1H621a22.09,22.09,0,0,0,22.09-22.09h0A22.09,22.09,0,0,0,621,418.29h-32.4a22.09,22.09,0,0,1-22.09-22.09h0a22.09,22.09,0,0,1,22.09-22.09H735.92A22.1,22.1,0,0,0,758,352h0a22.09,22.09,0,0,0-22.09-22.09H291.13A22.09,22.09,0,0,0,269,352V705.49a22.09,22.09,0,0,0,22.09,22.09H621a22.09,22.09,0,0,0,22.09-22.09h0A22.1,22.1,0,0,0,621,683.39Z" transform="translate(-269.04 -329.92)"/></svg>