<svg id="Layer_1" data-name="Layer 1" xmlns="http://www.w3.org/2000/svg" xmlns:xlink="http://www.w3.org/1999/xlink" viewBox="0 0 588.7 391.5"><defs><style>.cls-1{fill:url(#linear-gradient);}</style><linearGradient id="linear-gradient" x1="297.52" y1="319.9" x2="731.37" y2="753.75" gradientUnits="userSpaceOnUse"><stop offset="0" stop-color="#a8edea"/><stop offset="1" stop-color="#fed6e3"/></linearGradient></defs><title>wiggle1</title><path class="cls-1" d="M615.22,684h-34.8a21.75,21.75,0,0,1-21.75-21.75h0a21.75,21.75,0,0,1,21.75-21.75h255.2a21.75,21.75,0,0,0,21.75-21.75h0A21.75,21.75,0,0,0,835.62,597H580.42a21.75,21.75,0,0,1-21.75-21.75h0a21.75,21.75,0,0,1,21.75-21.75h92.8A21.75,21.75,0,0,0,695,531.75h0A21.75,21.75,0,0,0,673.22,510h-92.8a21.75,21.75,0,0,1-21.75-21.75h0a21.75,21.75,0,0,1,21.75-21.75h34.8A21.75,21.75,0,0,0,637,444.75h0A21.75,21.75,0,0,0,615.22,423h-31.9a21.75,21.75,0,0,1-21.75-21.75h0a21.75,21.75,0,0,1,21.75-21.75h145a21.75,21.75,0,0,0,21.75-21.75h0A21.75,21.75,0,0,0,728.32,336H290.42a21.75,21.75,0,0,0-21.75,21.75v348a21.75,21.75,0,0,0,21.75,21.75h324.8A21.75,21.75,0,0,0,637,705.75h0A21.75,21.75,0,0,0,615.22,684Z" transform="translate(-268.67 -336)"/></svg>