<svg id="Layer_1" data-name="Layer 1" xmlns="http://www.w3.org/2000/svg" xmlns:xlink="http://www.w3.org/1999/xlink" viewBox="0 0 593.3 394.56"><defs><style>.cls-1{fill:url(#linear-gradient);}</style><linearGradient id="linear-gradient" x1="295.77" y1="-325.29" x2="733.02" y2="111.96" gradientTransform="matrix(1, 0, 0, -1, 0, 417.5)" gradientUnits="userSpaceOnUse"><stop offset="0" stop-color="#a8edea"/><stop offset="1" stop-color="#53f9d7"/></linearGradient></defs><title>wiggle2</title><path class="cls-1" d="M616,375.84H580.89A21.91,21.91,0,0,0,559,397.76h0a21.91,21.91,0,0,0,21.92,21.92H838.08A21.91,21.91,0,0,1,860,441.6h0a21.91,21.91,0,0,1-21.92,21.92H580.89A21.91,21.91,0,0,0,559,485.44h0a21.91,21.91,0,0,0,21.92,21.92h93.52a21.91,21.91,0,0,1,21.92,21.92h0a21.91,21.91,0,0,1-21.92,21.92H580.89A21.91,21.91,0,0,0,559,573.12h0A21.91,21.91,0,0,0,580.89,595H616A21.92,21.92,0,0,1,637.88,617h0A21.92,21.92,0,0,1,616,638.88H583.81a21.91,21.91,0,0,0-21.92,21.92h0a21.91,21.91,0,0,0,21.92,21.92H729.94a21.91,21.91,0,0,1,21.92,21.92h0a21.91,21.91,0,0,1-21.92,21.92H288.62a21.91,21.91,0,0,1-21.92-21.92V353.92A21.91,21.91,0,0,1,288.62,332H616a21.92,21.92,0,0,1,21.92,21.92h0A21.92,21.92,0,0,1,616,375.84Z" transform="translate(-266.7 -332)"/></svg>