<?xml version="1.0" encoding="utf-8"?>
<!-- Generator: Adobe Illustrator 16.0.0, SVG Export Plug-In . SVG Version: 6.00 Build 0)  -->
<!DOCTYPE svg PUBLIC "-//W3C//DTD SVG 1.1//EN" "http://www.w3.org/Graphics/SVG/1.1/DTD/svg11.dtd">
<svg version="1.1" xmlns="http://www.w3.org/2000/svg" xmlns:xlink="http://www.w3.org/1999/xlink" x="0px" y="0px" width="700px"
	 height="700px" viewBox="0 0 700 700" enable-background="new 0 0 700 700" xml:space="preserve">
<g id="Layer_2">
	<linearGradient id="path3001_1_" gradientUnits="userSpaceOnUse" x1="349.9995" y1="31.8682" x2="349.9995" y2="668.1323">
		<stop  offset="0" style="stop-color:#4FA9C9"/>
		<stop  offset="0.3471" style="stop-color:#46C0B4"/>
		<stop  offset="1" style="stop-color:#31F583"/>
	</linearGradient>
	<path id="path3001" fill="url(#path3001_1_)" d="M671.617,350c0.035,175.665-143.93,318.098-321.555,318.132
		c-177.624,0.034-321.645-142.343-321.68-318.008c0-0.041,0-0.083,0-0.124C28.349,174.335,172.313,31.902,349.937,31.868
		c177.624-0.034,321.646,142.343,321.681,318.008C671.617,349.917,671.617,349.959,671.617,350z"/>
</g>
<g id="Layer_1">
	<linearGradient id="path16_1_" gradientUnits="userSpaceOnUse" x1="349.9995" y1="37.4678" x2="349.9995" y2="662.5327">
		<stop  offset="0" style="stop-color:#4FA9C9"/>
		<stop  offset="1" style="stop-color:#2956E2"/>
	</linearGradient>
	<path id="path16" fill="url(#path16_1_)" d="M259.708,231.594c26.829,8.367-30.528,36.073-12.118,17.192
		c4.852-6.188-1.806-13.746,10.187-15.057l0.775-1.508L259.708,231.594L259.708,231.594z M209.69,123.224
		c19.563-5.866,21.168-15.359,40.868-24.512c4.07-9.571,13.341-13.11,21.19-18.097c-17.736,3.29-3.541-12.959-21.434,0.884
		c7.651-13.202-24.247-4.238-1.723-4.589c-11.122,12.589-34.618,32.835-52.18,43.015c-3.053-2.14,22.396-23.24,0.275-5.519
		c-6.966,12.674-28.649,17.121-13.896,1.608c10.596-5.634,6.587-18.755,14.922-11.179c13.757-5.926,10.621-7.384,23.99-14.46
		c-11.276-2.69-26.177,9.535-37.95,12.471c31.104-25.561-19.654-4.32-26.181,10.87c-11.446,11.528-38.68,35.2-11.846,14.736
		c6.356,3.426,39.484-35.301,36.154-15.017c-7.366,6.73-10.114,12.519-18.656,16.976c-13.783,14.709,27.425-12.963,2.067,7.68
		c-16.857,11.21-14.398,33.361-31.207,43.882c-11.038,3.409-14.116,31.829-17.062,21.82c-15.214-14.001,31.12-26.095,4.671-24.899
		c-2.011-5.221-3.384,8.062-9.262-0.095c-7.271,9.905,1.66,23.11-12.49,20.501c-13.243,0.104,17.653-14.877-6.327-10.624
		c-3.756-1.788-9.802,7.938-15.831,15.979c-17.297,12.642-22.991,31.845-29.699,53.281c-19.488,62.275-18.828,144.935,6.067,203.557
		c54.775,128.983,173.154,206.458,308.688,200.743c-12.749-5.235-41.831-23.483-15.141-35.132
		c-15.097-10.569-8.021-26.567-28.714-37.05c13.687-11.78,2.984-29.077-14.243-25.363c-15.322,2.305-23.527-16.074-39.538-8.171
		c-22.539,1.492-47.084-6.497-67.563-17.169c-19.336-18.535-40.594-41.603-39.155-67.557c5.086-14.022,8.267-23.042,4.889-36.425
		c16.252-14.374,23.281-37.198,45.387-37.05c-4.023-18.392,48.185-39.728,13.257-40.873c-0.6-17.98,1.763-23.524,9.089-41.26
		c-2.25-30.536,31.281,7.962,39.211-9.688c15.989-18.165-28.643-38.326,6.543-33.346c13.541,0.176,18.155-11.759,0.443-6.36
		c-13.685-0.971-25.854,2.202-8.336-9.263c-14.142-4.097,16.091-9.844,1.153-19.354c-0.808-5.456,6.211-7.692-1.139-7.044
		c-3.752-5.129,10.841-11.922-1.779-14.889c6.691-19.156,5.875-3.471,10.321-6.07c5.411-1.069,12.294,6.045,3.52,14.037
		c7.567,13.712,17.445,29.333,12.933,38.877c8.009-6.398,23.4-11.586,27.787-17.599c-11.75-22.016,23.675-32.763,7.913-12.912
		c-6.354,14.767,11.638,12.448-0.086,3.789c9.543,2.193,15.595-7.595,7.172-18.097c-1.533-14.7-18.258,12.658-21.756-4.656
		c-10.912-26.219,28.639-29.992,33.407-52.31c-9.472,2.08,22.424-29.315,36.226-14.69c15.24,0.731,45.263,19.157,13.834,15.428
		c0.922-1.038,4.77,16.816,15.442,14.552c12.063,2.847-8.201-8.678,2.49-7.705c-2.267-8.724,7.971-14.454-2.942-21.582
		c18.064-2.662,3.284,7.35,15.282,12.839c12.434,8.418-7.323-28.697,10.652-14.691c22.721-24.063-26.838-1.554-27.733-23.479
		c-10.056-17.08,5.936-29.786,5.793-6.298c4.33,17.023,23.814,12.103,37.109,14.589c5.943,1.193-31.128-16.113-19.065-21.861
		c8.588-2.714,11.923,0.013,6.649-5.427c-3.576-6.265-10.843-13.686-14.269-20.182c-22.587-12.602,27.93-0.237,10.59-13.294
		c-7.596,0.236,6.159-13.514-12.958-10.413c-13.559,8.816-38.335-14.751-12.146-1.43c20.302,1.652-21.086-17.224-31.15-18.434
		c-32.354-3.889-58.006-0.671-89.566,3.382c-17.327,2.225-14.403,14.694-1.454,12.075c-3.501,10.011-21.083,7.299-2.265,8.157
		c-11.816,5,24.291,6.467,7.821,16.852c9.721,4.583,25.073,12.107,14.621,14.039c20.875-0.498-14.917,16.855-15.903,25.589
		c-14.158,5.629-26.298,20.772-32.044,15.038c10.553,8.114-10.218,9.579-15.927,6.395c-14.145-5.093-34.307,8.956-48.217,18.582
		C174.54,176.483,191.346,131.98,209.69,123.224L209.69,123.224L209.69,123.224z M503.313,616.916
		c7.874-16.267,22.499-27.23,37.684-39.174c19.417-7.136-12.962,27.482-23.81,31.716
		C512.863,612.437,508.577,615.729,503.313,616.916z M507.019,593.759c-2.1,23.214-35.473,23.834-46.153,40.916
		c-10.803,5.404-33.904,20.667-6.629,10.744c69.784-25.388,106.856-61.857,129.362-84.944
		c51.443-52.771,83.807-132.658,81.944-219.633c-2.446-6.362-14.313-62.233-15.968-35.722c-0.193,28.024-0.842,56.164,1.494,84.038
		c-8.005,37.278-19.433-43.557-21.633-23.036c-8.203-1.982-9.132-6.318-19.326-11.347c-7.447,11.31-24.06,25.473-34.476,16.954
		c-7.18,21.95-25.58,3.141-32.493-2.123c-17.479,14.818,24.815,31.526,29.481,20.018c5.631-17.127,2.153-13.463,12.839-7.051
		c13.579,2.878,2.259,28.823-1.858,40.619c-11.096,14.869-16.662,35.948-35.086,48.078c-10.481,13.71-24.037,21.143-23.901-3.481
		c-12.459-18.032-28.558-22.084-38.648-42.513c-1.087-15.236-13.919-19.374-17.504-10.094c-8.686-5.704,13.033,24.681,18.229,28.849
		c7.989,22.735,22.61,38.462,45.335,45.062c1.857,30.53,49.438-46.995,37.283-6.931c-8.656,29.865-32.063,51.171-47.968,76.893
		C512.064,569.67,499.318,582.232,507.019,593.759L507.019,593.759z M460.704,586.35c10.023,0.351,23.243-16.846,10.611-15.386
		C462.729,571.163,462.992,580.405,460.704,586.35z M346.776,106.55c8.191-12.011,15.963,2.057,8.11,2.754
		c9.766,11.154-8.354-3.738-5.919,14.024C346.113,122.272,333.529,95.325,346.776,106.55z M366.228,175.093
		c1.954,12.2-22.233,20.312-1.853,29.64c-2.123,12.505-11.951,34.082-22.578,34.471c-14.259,10.244,17.447,9.018,22.534,1.135
		c11.726,4.896,9.047-5.223,11.382-11.568c-5.081-14.254,17.139,1.322,4.729-15.532c-12.64,10.913,8.054-12.062,16.16-8.506
		c-3.706-9.611-30.251,15.292-25.744-4.631C353.622,188.707,398.223,167.787,366.228,175.093L366.228,175.093z M424.681,293.136
		c1.102,6.804-1.884,18.039-7.218,26.511c12.89,15.558,38.383-11.848,58.109,0.019c24.147-15.143-28.5-37.346-32.986-13.247
		c-10.055-7.712,5.815-18.645-10.499-16.494C428.069,289.233,428.022,282.646,424.681,293.136z M521.838,321.442
		c16.119,8.79,33.471-7.872,13.877-18.176c-8.513-10.958-11.036-20.006-22.644-24.839c-5.869-2.403,12.732-28.417-7.25-16.466
		c-13.905,6.354-7.079,25.221,0.496,31.09C526.025,305.267,524.01,298.309,521.838,321.442z M323.619,354.786
		c-13.222,8.393-12.294-12.109-6.894-18.109c-0.986-6.76,10.562-24.32,6.431-4.268C320.144,338.573,328.148,347.378,323.619,354.786
		z M242.108,362.197c9.275,22.36,52.29-3.056,74.952,9.032c10.909-4.068,17.979-1.78,14.146,9.936
		c-15.707,5.681,4.804,13.957,10.013,12.523c15.191,2.063,18.944,15.817,35.504,17.533c12.965,3.867,3.507-29.426,26.352-18.406
		c4.836,7.655,15.627,3.788,24.64,5.884c15.219,5.153,23.201-13.194,37.687-10.645c4.981-11.398,3.545-45.737,1.703-40.589
		c-8.81,7.999-23.255,8.648-35.089,14.397c-6.035-4.561-11.749,5.657-13.71-10.458c-4.129-8.882-4.934-24.741-21.511-9.585
		c-4.859,1.049,15.318,12.075,11.143,17.824c-10.173-6.651-9.17-1.31-11.048,8.11c-9.411-5.682-16.804-30.492-30.101-41.62
		c-14.306-6.781-15.455-20.513-25.517-23.015c-7.81,20.598,34.213,34.573,27.531,40.548c-16.75-10.254,7.841,19.259-14.314,18.408
		c0.148,15.731-30.156-10.033-3.368-2.658c19.053-11.242-15.291-24.549-21.521-35.411c-5.97-24.184-21.759,12.046-33.898-8.072
		c-1.268,10.682-26.411,18.873-23.951,35.148C262.777,359.503,255.366,362.432,242.108,362.197L242.108,362.197z M245.813,165.831
		c0.729,0.199,11.104-17.591,9.727-6.947c24.727,3.153-1.325,26.66-14.356,10.652C242.727,168.301,244.271,167.065,245.813,165.831z
		"/>
</g>
</svg>
