<?xml version="1.0" encoding="utf-8"?>
<!-- Generator: Adobe Illustrator 22.0.1, SVG Export Plug-In . SVG Version: 6.00 Build 0)  -->
<svg version="1.1" id="Layer_1" xmlns="http://www.w3.org/2000/svg" xmlns:xlink="http://www.w3.org/1999/xlink" x="0px" y="0px"
	 viewBox="0 0 700 700" style="enable-background:new 0 0 700 700;" xml:space="preserve">
<style type="text/css">
	.st0{display:none;}
	.st1{fill:url(#SVGID_1_);}
	.st2{opacity:0.2;fill:#FFFFFF;enable-background:new    ;}
	.st3{fill:url(#SVGID_2_);}
	.st4{opacity:0.4;fill:#FFFFFF;enable-background:new    ;}
	.st5{fill:url(#SVGID_3_);}
	.st6{fill:#FFFFFF;}
	.st7{fill:url(#SVGID_4_);}
	.st8{opacity:0.3;fill:#FFFFFF;enable-background:new    ;}
	.st9{opacity:0.1;enable-background:new    ;}
</style>
<g id="Layer_1_1_" class="st0">
</g>
<g id="Layer_2_1_">
	
		<linearGradient id="SVGID_1_" gradientUnits="userSpaceOnUse" x1="347.159" y1="126.379" x2="347.159" y2="601.98" gradientTransform="matrix(1 0 0 -1 0 699.276)">
		<stop  offset="0" style="stop-color:#CCCCCC"/>
		<stop  offset="1" style="stop-color:#B3B3B3"/>
	</linearGradient>
	<path class="st1" d="M585,335.1c0,37.6-8.7,73.1-24.3,104.8c-38.7,78.8-119.8,133-213.5,133c-131.3,0-237.8-106.5-237.8-237.8
		c0-131.3,106.5-237.8,237.8-237.8c56.8,0,108.9,19.9,149.8,53.1C550.7,194,585,260.5,585,335.1z"/>
</g>
<g id="Layer_7">
	<path class="st2" d="M585,337.4c0,35.5-7.8,69.2-21.7,99.5c-43,32.5-96.6,51.7-154.6,51.7c-141.9,0-256.9-115-256.9-256.9
		c0-11.1,0.7-22.1,2.1-32.8c43.1-60.1,113.7-99.3,193.3-99.3c56.8,0,108.9,19.9,149.8,53.1C550.7,196.3,585,262.8,585,337.4z"/>
</g>
<g id="Layer_3">
	
		<linearGradient id="SVGID_2_" gradientUnits="userSpaceOnUse" x1="350.5369" y1="100.707" x2="350.5369" y2="176.3704" gradientTransform="matrix(1 0 0 -1 0 699.276)">
		<stop  offset="0" style="stop-color:#DEDEDE"/>
		<stop  offset="1" style="stop-color:#B3B3B3"/>
	</linearGradient>
	<path class="st3" d="M167.5,560.7c0,20.9,16.9,37.8,37.8,37.8h290.5c20.9,0,37.8-16.9,37.8-37.8l0,0c0-20.9-16.9-37.8-37.8-37.8
		H205.3C184.4,522.9,167.5,539.8,167.5,560.7L167.5,560.7z"/>
	<path class="st4" d="M344.5,578.6c0,3.9,3.2,7.1,7.1,7.1H486c3.9,0,7.1-3.2,7.1-7.1l0,0c0-3.9-3.2-7.1-7.1-7.1H351.6
		C347.6,571.5,344.5,574.7,344.5,578.6L344.5,578.6z"/>
</g>
<g id="Layer_4">
	
		<linearGradient id="SVGID_3_" gradientUnits="userSpaceOnUse" x1="209.3727" y1="282.2372" x2="209.3727" y2="351.5217" gradientTransform="matrix(1 0 0 -1 0 699.276)">
		<stop  offset="0" style="stop-color:#FF6583"/>
		<stop  offset="1" style="stop-color:#FF9A95"/>
	</linearGradient>
	<path class="st5" d="M174.7,382.4c0,19.1,15.5,34.6,34.6,34.6l0,0c19.1,0,34.6-15.5,34.6-34.6l0,0c0-19.1-15.5-34.6-34.6-34.6l0,0
		C190.2,347.8,174.7,363.3,174.7,382.4L174.7,382.4z"/>
</g>
<g id="Layer_5">
	<path class="st6" d="M514.7,129.7"/>
	
		<linearGradient id="SVGID_4_" gradientUnits="userSpaceOnUse" x1="270.1272" y1="403.0819" x2="584.9599" y2="403.0819" gradientTransform="matrix(1 0 0 -1 0 699.276)">
		<stop  offset="0" style="stop-color:#60BAFF"/>
		<stop  offset="1" style="stop-color:#5459E2"/>
	</linearGradient>
	<path class="st7" d="M585,335.1c0,37.6-8.7,73.1-24.3,104.8c-24.3,0.4-232.6,4.1-261.5,0.6c-30.7-3.7-29-36.5-29-36.5v-57.4
		L497,150.4C550.7,194,585,260.5,585,335.1z"/>
</g>
<g id="Layer_6">
	<path class="st8" d="M543.7,237.8c10.5,27.1,15.4,57.7,7.8,60.7c-7.6,3-15.8-23.8-26.3-50.9c-10.5-27.1-29.4-46.7-23.5-52.9
		C509.4,186.5,533.1,210.8,543.7,237.8z"/>
	<path class="st4" d="M181.2,383.2c0,7.3,5.1,14.6,6.5,14.6c1.4,0-2-7.1-1.4-14.4c0.6-6.9,2.4-14.8,1-14.8S181.2,375.9,181.2,383.2z
		"/>
	<path class="st9" d="M495.8,522.9H205.3c-20.9,0-37.8,16.9-37.8,37.8c0,1,0.1,2.1,0.1,3.1h365.9c0.1-1,0.1-2,0.1-3.1
		C533.6,539.8,516.7,522.9,495.8,522.9z"/>
</g>
</svg>
