<?xml version="1.0" encoding="utf-8"?>
<!-- Generator: Adobe Illustrator 22.0.1, SVG Export Plug-In . SVG Version: 6.00 Build 0)  -->
<svg version="1.1" id="Layer_1" xmlns="http://www.w3.org/2000/svg" xmlns:xlink="http://www.w3.org/1999/xlink" x="0px" y="0px"
	 viewBox="0 0 700 700" style="enable-background:new 0 0 700 700;" xml:space="preserve">
<style type="text/css">
	.st0{display:none;}
	.st1{fill:#020202;}
	.st2{fill:#FFFFFF;}
	.st3{font-family:'SFUIDisplay-Bold';}
	.st4{font-size:110.8597px;}
	.st5{font-size:55.0367px;}
</style>
<g id="Layer_1_1_" class="st0">
</g>
<g id="Layer_2_1_">
</g>
<g id="Layer_4">
	<g>
		<path class="st1" d="M391.9,280.1H228.6c2.8-42.3,38.4-75.7,81.7-75.7c22.6,0,43,9.1,57.9,23.8
			C381.8,241.7,390.6,259.8,391.9,280.1z M228.5,530.9c0.7,21.4,9.7,40.7,23.9,54.7c14.8,14.7,35.3,23.8,57.9,23.8
			c44.3,0,80.4-34.9,81.8-78.6H228.5z M228.4,297.1v216.8h163.8V297.1H228.4z"/>
		<path class="st1" d="M417.9,324.9v20.3c0,5-4.1,9-9.2,9c-2.5,0-4.8-1-6.5-2.6c-1.7-1.6-2.7-3.9-2.7-6.4v-37.8c0-5,4.1-9,9.2-9
			c2.5,0,4.8,1,6.5,2.6c1.7,1.6,2.7,3.9,2.7,6.4v9.3c18.3-9.6,51.2-34.4,45.4-86.2c-4.8-43.5-48.7-59.6-54-61.4l-26.2,0.1V182
			c0,3.9-3.3,7.2-7.3,7.2c-2,0-3.8-0.8-5.1-2.1c-1.3-1.3-2.1-3.1-2.1-5.1v-6.5h-39.8V200c-6.7-1.6-13.6-2.4-20.7-2.4
			c-6.1,0-12,0.6-17.8,1.8v-66.6H274c-5.9,0-10.8-4.7-10.8-10.5c0-2.9,1.2-5.6,3.1-7.5c2-1.9,4.6-3.1,7.6-3.1h16.5
			c0.9-11.8,9.1-21.1,19.1-21.1c5.3,0,10.1,2.6,13.6,6.8c3.1,3.7,5.1,8.7,5.5,14.3h19c5.9,0,10.7,4.7,10.7,10.6
			c0,5.8-4.8,10.5-10.7,10.5h-18.9V152h39.8v-2.8c0-3.9,3.2-7.2,7.2-7.2c2,0,3.8,0.8,5.1,2.1c1.3,1.3,2.1,3.1,2.1,5.1v12.6l27.4-0.1
			l0.6,0.2c0.5,0.1,54.1,16.9,59.7,67.8C477.4,288.4,436.8,315.6,417.9,324.9z"/>
	</g>
	<text transform="matrix(1 0 0 1 252.2891 440.0739)" class="st2 st3 st4">O</text>
	<text transform="matrix(1 0 0 1 334.5278 454.5338)" class="st2 st3 st5">2</text>
</g>
<g id="Layer_5">
</g>
</svg>
