<?xml version="1.0" encoding="utf-8"?>
<!-- Generator: Adobe Illustrator 16.0.0, SVG Export Plug-In . SVG Version: 6.00 Build 0)  -->
<!DOCTYPE svg PUBLIC "-//W3C//DTD SVG 1.1//EN" "http://www.w3.org/Graphics/SVG/1.1/DTD/svg11.dtd">
<svg version="1.1" xmlns="http://www.w3.org/2000/svg" xmlns:xlink="http://www.w3.org/1999/xlink" x="0px" y="0px"
	 width="1078.893px" height="1078.893px" viewBox="0 0 1078.893 1078.893" enable-background="new 0 0 1078.893 1078.893"
	 xml:space="preserve">
<g id="Layer_2">
</g>
<g id="Layer_3">
</g>
<g id="Layer_4">
	<g>
		<linearGradient id="path3001_2_" gradientUnits="userSpaceOnUse" x1="352.4834" y1="254.939" x2="681.0063" y2="823.9575">
			<stop  offset="0" style="stop-color:#38E5BD"/>
			<stop  offset="0.3342" style="stop-color:#59B5D5"/>
			<stop  offset="0.7843" style="stop-color:#827AF3"/>
			<stop  offset="1" style="stop-color:#9263FF"/>
		</linearGradient>
		<path id="path3001_1_" fill="url(#path3001_2_)" d="M847.894,539.449C847.931,720.32,699.699,866.973,516.81,867.01
			c-182.889,0.035-331.178-146.563-331.214-327.434c0-0.043,0-0.086,0-0.127C185.56,358.576,333.792,211.921,516.68,211.887
			c182.889-0.036,331.18,146.562,331.214,327.433C847.894,539.363,847.894,539.404,847.894,539.449z"/>
		<linearGradient id="SVGID_1_" gradientUnits="userSpaceOnUse" x1="351.8271" y1="254.7437" x2="680.5024" y2="824.026">
			<stop  offset="0" style="stop-color:#38E5BD"/>
			<stop  offset="0.3342" style="stop-color:#59B5D5"/>
			<stop  offset="0.7843" style="stop-color:#827AF3"/>
			<stop  offset="1" style="stop-color:#9263FF"/>
		</linearGradient>
		<path fill="url(#SVGID_1_)" d="M847,539.314v0.137c0,86.803-33.663,165.719-89.392,224.326
			c-60.379,63.533-145.899,103.215-241.024,103.229c-19.266,0-38.037-1.625-56.41-4.748
			c-88.576-15.045-165.066-64.887-214.692-134.779c-1.799-2.529-3.53-5.086-5.261-7.67c-1.719-2.584-3.395-5.195-5.059-7.834
			c-23.068-36.664-39.188-78.158-46.06-122.588c-0.041-0.271-0.569-0.541-0.61-0.811c-2.435-15.98-4.492-32.35-4.492-49.004v-0.121
			c0-180.871,149-327.528,331.873-327.568c67.269-0.015,130.262,19.819,182.525,53.887c0.041,0.026-0.218,0.055-0.191,0.081
			C764.162,308.901,813,374.652,835,451.85c0,0.014,0,0.014,0,0.027C843,479.707,847,509.037,847,539.314z"/>
		<linearGradient id="SVGID_2_" gradientUnits="userSpaceOnUse" x1="601.2432" y1="378.0996" x2="771.4592" y2="525.3351">
			<stop  offset="0" style="stop-color:#00BF87"/>
			<stop  offset="0.478" style="stop-color:#007C79"/>
			<stop  offset="1" style="stop-color:#00366A"/>
		</linearGradient>
		<path opacity="0.7" fill="url(#SVGID_2_)" d="M835,451.85c0,0.014,0,0.014,0,0.027c-4,1.557-11.761-2.15-24.032-3.18
			c-18.656-1.557-7.565,4.668-16.886,23.324c-9.336,18.656-29.44,18.656-49.654,20.213c-20.226,1.557-34.162,18.67-43.496,24.895
			c-9.322,6.209-40.398,46.646-88.616,49.76c-48.204,3.111-49.747-35.771-35.743-46.664c13.989-10.875,51.32-3.096,66.865-15.545
			c15.559-12.445,0.005-20.211,0.005-43.537c0-23.336,7.781-40.438,23.34-66.873c15.545-26.436-1.555-24.881,18.658-90.199
			c4.748-15.329,8.811-27.926,12.896-38.22C764.292,308.901,813,374.652,835,451.85z"/>
		<linearGradient id="SVGID_3_" gradientUnits="userSpaceOnUse" x1="221.7383" y1="483.7168" x2="401.3027" y2="639.0386">
			<stop  offset="0.0053" style="stop-color:#00FF00"/>
			<stop  offset="0.2125" style="stop-color:#08EC11"/>
			<stop  offset="1" style="stop-color:#27A64F"/>
		</linearGradient>
		<path opacity="0.7" fill="url(#SVGID_3_)" d="M463.062,521.66c-17.508,2.787-28.114,14.813-47.731,18.223
			c-19.617,3.398-9.74,17.711-20.983,38.152c-11.243,20.43-30.874,43.158-57.243,58.824c-26.367,15.668-6.06,11.068-55.252,58.543
			c-14.477,13.975-26.518,24.365-36.313,32.076c-28.763-40.52-55.821-101.293-59.88-169.615c8.78-41.506,12.758-47.27,17.588-52.764
			c9.471-10.756,22.35-7.48,37.949,2.883c15.6,10.348,9.064-0.34,26.233-12.205c17.168-11.852,34.879-2.096,53.346,6.279
			c18.453,8.389,38.964,0.146,50.139-0.813c11.175-0.947,79.511-21.863,123.25-1.352
			C537.903,520.402,480.568,518.873,463.062,521.66z"/>
		<g>
			
				<linearGradient id="SVGID_4_" gradientUnits="userSpaceOnUse" x1="288.6973" y1="325.9678" x2="520.4595" y2="727.3917" gradientTransform="matrix(1.0995 -0.3776 0.3748 1.0913 -102.8115 119.2598)">
				<stop  offset="0" style="stop-color:#00BF87"/>
				<stop  offset="0.478" style="stop-color:#007C79"/>
				<stop  offset="1" style="stop-color:#00366A"/>
			</linearGradient>
			<path fill="url(#SVGID_4_)" d="M1008.304,380.084c-7.898-23.014-36.859-34.167-88.528-34.167
				c-33.839,0-76.929,4.815-126.162,13.749c6.463,9.703,12.397,19.762,17.799,30.146c42.089-7.193,78.961-11.033,108.363-11.033
				c51.841,0,57.361,11.85,57.411,11.971c0.743,2.193-1.315,11.689-19.675,29.145c-18.027,17.139-47.221,37.52-84.423,58.922
				c-9.032,5.205-18.466,10.434-28.279,15.678c-75.978,40.639-174.175,82.289-280.551,118.82
				c-125.842,43.225-247.713,73.711-337.121,85.119c-25.537,3.254-48.44,4.961-68.017,4.961c-51.841,0-57.363-11.848-57.4-11.957
				c-0.755-2.195,1.317-11.703,19.662-29.145c15.98-15.201,40.725-32.936,72.052-51.672c-2.547-11.336-4.486-22.879-5.791-34.617
				C97.577,628.064,59.29,669.52,70.589,702.42c7.899,23.014,36.861,34.496,88.531,34.496c24.721,0,54.401-2.598,87.812-7.498
				c90.214-13.236,207.61-43.307,328.015-84.666c102.209-35.105,197.188-75.172,272.812-114.58
				c14.676-7.643,28.622-15.26,41.747-22.818C980.817,454.818,1019.677,413.189,1008.304,380.084z"/>
		</g>
		<linearGradient id="SVGID_5_" gradientUnits="userSpaceOnUse" x1="571.2666" y1="747.3564" x2="631.8711" y2="852.3265">
			<stop  offset="0" style="stop-color:#F6E5BD"/>
			<stop  offset="0.2807" style="stop-color:#CDBDD1"/>
			<stop  offset="0.7701" style="stop-color:#897CF2"/>
			<stop  offset="1" style="stop-color:#6F63FF"/>
		</linearGradient>
		<path fill="url(#SVGID_5_)" d="M758.064,763.777c-60.381,63.533-146.128,103.215-241.253,103.229
			c-19.266,0-38.15-1.625-56.523-4.748c-8.943-15.885-12.677-35.719,12.107-48.111c46.649-23.338,45.093-51.328,82.421-45.105
			c37.313,6.223,51.315,34.215,82.42,24.881c31.089-9.322,51.315-46.65,63.749-40.428c12.446,6.225,27.991,3.113,54.428,9.324
			C756.428,763.061,757.308,763.373,758.064,763.777z"/>
		<linearGradient id="SVGID_6_" gradientUnits="userSpaceOnUse" x1="448.7461" y1="322.626" x2="491.54" y2="396.7473">
			<stop  offset="0" style="stop-color:#00BF87"/>
			<stop  offset="0.478" style="stop-color:#007C79"/>
			<stop  offset="1" style="stop-color:#00366A"/>
		</linearGradient>
		<path opacity="0.4" fill="url(#SVGID_6_)" d="M449.065,322.737c-9.996,2.774-26.436,32.656-9.33,40.431
			s26.435,17.107,34.211,31.102c7.777,13.996,12.44,7.777,17.107-9.33c4.664-17.105,3.11-31.102,6.22-37.322
			C500.384,341.397,462.134,319.109,449.065,322.737z"/>
	</g>
</g>
</svg>
