<?xml version="1.0" encoding="utf-8"?>
<!-- Generator: Adobe Illustrator 22.0.1, SVG Export Plug-In . SVG Version: 6.00 Build 0)  -->
<svg version="1.1" xmlns="http://www.w3.org/2000/svg" xmlns:xlink="http://www.w3.org/1999/xlink" x="0px" y="0px"
	 viewBox="0 0 700 700" style="enable-background:new 0 0 700 700;" xml:space="preserve">
<style type="text/css">
	.st0{fill:url(#path3001_1_);}
	.st1{fill:url(#path16_1_);}
	.st2{fill:#FFFFFF;}
	.st3{fill:url(#SVGID_1_);stroke:#FFFFFF;stroke-miterlimit:10;}
	.st4{opacity:0.6;fill:url(#SVGID_2_);enable-background:new    ;}
	.st5{fill:url(#SVGID_3_);stroke:#FFFFFF;stroke-miterlimit:10;}
	.st6{fill:url(#SVGID_4_);}
	.st7{fill:url(#SVGID_5_);}
	.st8{fill:url(#SVGID_6_);stroke:#FFFFFF;stroke-miterlimit:10;}
	.st9{fill:url(#SVGID_7_);stroke:#FFFFFF;stroke-miterlimit:10;}
	.st10{fill:url(#SVGID_8_);}
	.st11{opacity:0.6;fill:url(#SVGID_9_);enable-background:new    ;}
	.st12{fill:url(#SVGID_10_);stroke:#FFFFFF;stroke-miterlimit:10;}
	.st13{fill:url(#SVGID_11_);stroke:#FFFFFF;stroke-miterlimit:10;}
	.st14{fill:url(#SVGID_12_);stroke:#FFFFFF;stroke-miterlimit:10;}
	.st15{fill:url(#SVGID_13_);stroke:#FFFFFF;stroke-miterlimit:10;}
</style>
<g id="Layer_2">
	<g id="Layer_2_1_">
		
			<linearGradient id="path3001_1_" gradientUnits="userSpaceOnUse" x1="354.6338" y1="638.4376" x2="354.6338" y2="87.0697" gradientTransform="matrix(1 0 0 -1 0 699.276)">
			<stop  offset="0" style="stop-color:#4FA9C9"/>
			<stop  offset="0.3471" style="stop-color:#46C0B4"/>
			<stop  offset="1" style="stop-color:#31F583"/>
		</linearGradient>
		<path id="path3001" class="st0" d="M633.3,336.5c0,152.2-124.7,275.7-278.7,275.7C200.8,612.2,76,488.9,75.9,336.6
			c0,0,0-0.1,0-0.1c0-152.2,124.7-275.7,278.7-275.7c153.9,0,278.7,123.4,278.8,275.6C633.3,336.5,633.3,336.5,633.3,336.5z"/>
	</g>
	<g id="Layer_1_1_">
		
			<linearGradient id="path16_1_" gradientUnits="userSpaceOnUse" x1="354.6322" y1="633.5854" x2="354.6322" y2="91.9226" gradientTransform="matrix(1 0 0 -1 0 699.276)">
			<stop  offset="0" style="stop-color:#4FA9C9"/>
			<stop  offset="1" style="stop-color:#2956E2"/>
		</linearGradient>
		<path id="path16" class="st1" d="M276.4,233.9c23.2,7.3-26.5,31.3-10.5,14.9c4.2-5.4-1.6-11.9,8.8-13l0.7-1.3L276.4,233.9
			L276.4,233.9z M233,140c17-5.1,18.3-13.3,35.4-21.2c3.5-8.3,11.6-11.4,18.4-15.7c-15.4,2.9-3.1-11.2-18.6,0.8
			c6.6-11.4-21-3.7-1.5-4c-9.6,10.9-30,28.5-45.2,37.3c-2.6-1.9,19.4-20.1,0.2-4.8c-6,11-24.8,14.8-12,1.4
			c9.2-4.9,5.7-16.3,12.9-9.7c11.9-5.1,9.2-6.4,20.8-12.5c-9.8-2.3-22.7,8.3-32.9,10.8c27-22.2-17-3.7-22.7,9.4
			c-9.9,10-33.5,30.5-10.3,12.8c5.5,3,34.2-30.6,31.3-13c-6.4,5.8-8.8,10.8-16.2,14.7c-11.9,12.7,23.8-11.2,1.8,6.7
			c-14.6,9.7-12.5,28.9-27,38c-9.6,3-12.2,27.6-14.8,18.9c-13.2-12.1,27-22.6,4-21.6c-1.7-4.5-2.9,7-8-0.1
			c-6.3,8.6,1.4,20-10.8,17.8c-11.5,0.1,15.3-12.9-5.5-9.2c-3.3-1.5-8.5,6.9-13.7,13.8c-15,11-19.9,27.6-25.7,46.2
			c-16.9,54-16.3,125.6,5.3,176.4c47.5,111.8,150.1,178.9,267.5,174c-11-4.5-36.2-20.3-13.1-30.4c-13.1-9.2-7-23-24.9-32.1
			c11.9-10.2,2.6-25.2-12.3-22c-13.3,2-20.4-13.9-34.3-7.1c-19.5,1.3-40.8-5.6-58.5-14.9c-16.8-16.1-35.2-36.1-33.9-58.5
			c4.4-12.2,7.2-20,4.2-31.6c14.1-12.5,20.2-32.2,39.3-32.1c-3.5-15.9,41.8-34.4,11.5-35.4c-0.5-15.6,1.5-20.4,7.9-35.8
			c-1.9-26.5,27.1,6.9,34-8.4c13.9-15.7-24.8-33.2,5.7-28.9c11.7,0.2,15.7-10.2,0.4-5.5c-11.9-0.8-22.4,1.9-7.2-8
			c-12.3-3.6,13.9-8.5,1-16.8c-0.7-4.7,5.4-6.7-1-6.1c-3.3-4.4,9.4-10.3-1.5-12.9c5.8-16.6,5.1-3,8.9-5.3c4.7-0.9,10.7,5.2,3.1,12.2
			c6.6,11.9,15.1,25.4,11.2,33.7c6.9-5.5,20.3-10,24.1-15.3c-10.2-19.1,20.5-28.4,6.9-11.2c-5.5,12.8,10.1,10.8-0.1,3.3
			c8.3,1.9,13.5-6.6,6.2-15.7c-1.3-12.7-15.8,11-18.9-4c-9.5-22.7,24.8-26,28.9-45.3c-8.2,1.8,19.4-25.4,31.4-12.7
			c13.2,0.6,39.2,16.6,12,13.4c0.8-0.9,4.1,14.6,13.4,12.6c10.5,2.5-7.1-7.5,2.2-6.7c-2-7.6,6.9-12.5-2.5-18.7
			c15.7-2.3,2.8,6.4,13.2,11.1c10.8,7.3-6.3-24.9,9.2-12.7c19.7-20.9-23.3-1.3-24-20.3c-8.7-14.8,5.1-25.8,5-5.5
			c3.8,14.8,20.6,10.5,32.2,12.6c5.2,1-27-14-16.5-18.9c7.4-2.4,10.3,0,5.8-4.7c-3.1-5.4-9.4-11.9-12.4-17.5
			c-19.6-10.9,24.2-0.2,9.2-11.5c-6.6,0.2,5.3-11.7-11.2-9c-11.7,7.6-33.2-12.8-10.5-1.2c17.6,1.4-18.3-14.9-27-16
			c-28-3.4-50.3-0.6-77.6,2.9c-15,1.9-12.5,12.7-1.3,10.5c-3,8.7-18.3,6.3-2,7.1c-10.2,4.3,21,5.6,6.8,14.6
			c8.4,4,21.7,10.5,12.7,12.2c18.1-0.4-12.9,14.6-13.8,22.2c-12.3,4.9-22.8,18-27.8,13c9.1,7-8.9,8.3-13.8,5.5
			c-12.3-4.4-29.7,7.8-41.8,16.1C202.6,186.2,217.1,147.6,233,140L233,140L233,140z M487.5,567.8c6.8-14.1,19.5-23.6,32.7-33.9
			c16.8-6.2-11.2,23.8-20.6,27.5C495.8,563.9,492.1,566.8,487.5,567.8z M490.7,547.8c-1.8,20.1-30.7,20.7-40,35.5
			c-9.4,4.7-29.4,17.9-5.7,9.3c60.5-22,92.6-53.6,112.1-73.6c44.6-45.7,72.6-115,71-190.3c-2.1-5.5-12.4-53.9-13.8-31
			c-0.2,24.3-0.7,48.7,1.3,72.8c-6.9,32.3-16.8-37.7-18.7-20c-7.1-1.7-7.9-5.5-16.7-9.8c-6.5,9.8-20.8,22.1-29.9,14.7
			c-6.2,19-22.2,2.7-28.2-1.8c-15.1,12.8,21.5,27.3,25.5,17.3c4.9-14.8,1.9-11.7,11.1-6.1c11.8,2.5,2,25-1.6,35.2
			c-9.6,12.9-14.4,31.2-30.4,41.7c-9.1,11.9-20.8,18.3-20.7-3c-10.8-15.6-24.7-19.1-33.5-36.8c-0.9-13.2-12.1-16.8-15.2-8.7
			c-7.5-4.9,11.3,21.4,15.8,25c6.9,19.7,19.6,33.3,39.3,39c1.6,26.5,42.8-40.7,32.3-6c-7.5,25.9-27.8,44.3-41.6,66.6
			C495.1,526.9,484,537.8,490.7,547.8L490.7,547.8z M450.6,541.3c8.7,0.3,20.1-14.6,9.2-13.3C452.3,528.2,452.5,536.2,450.6,541.3z
			 M351.8,125.6c7.1-10.4,13.8,1.8,7,2.4c8.5,9.7-7.2-3.2-5.1,12.2C351.3,139.2,340.4,115.8,351.8,125.6z M368.7,185
			c1.7,10.6-19.3,17.6-1.6,25.7c-1.8,10.8-10.4,29.5-19.6,29.9c-12.4,8.9,15.1,7.8,19.5,1c10.2,4.2,7.8-4.5,9.9-10
			c-4.4-12.4,14.9,1.1,4.1-13.5c-11,9.5,7-10.5,14-7.4c-3.2-8.3-26.2,13.3-22.3-4C357.8,196.8,396.4,178.6,368.7,185L368.7,185z
			 M419.4,287.2c1,5.9-1.6,15.6-6.3,23c11.2,13.5,33.3-10.3,50.4,0c20.9-13.1-24.7-32.4-28.6-11.5c-8.7-6.7,5-16.2-9.1-14.3
			C422.3,283.9,422.2,278.2,419.4,287.2z M503.5,311.8c14,7.6,29-6.8,12-15.8c-7.4-9.5-9.6-17.3-19.6-21.5
			c-5.1-2.1,11-24.6-6.3-14.3c-12,5.5-6.1,21.9,0.4,26.9C507.2,297.8,505.4,291.7,503.5,311.8z M331.8,340.7
			c-11.5,7.3-10.7-10.5-6-15.7c-0.9-5.9,9.2-21.1,5.6-3.7C328.8,326.6,335.7,334.3,331.8,340.7z M261.1,347.1
			c8,19.4,45.3-2.6,65,7.8c9.5-3.5,15.6-1.5,12.3,8.6c-13.6,4.9,4.2,12.1,8.7,10.9c13.2,1.8,16.4,13.7,30.8,15.2
			c11.2,3.4,3-25.5,22.8-16c4.2,6.6,13.5,3.3,21.4,5.1c13.2,4.5,20.1-11.4,32.7-9.2c4.3-9.9,3.1-39.6,1.5-35.2
			c-7.6,6.9-20.2,7.5-30.4,12.5c-5.2-4-10.2,4.9-11.9-9.1c-3.6-7.7-4.3-21.4-18.6-8.3c-4.2,0.9,13.3,10.5,9.7,15.4
			c-8.8-5.8-7.9-1.1-9.6,7c-8.2-4.9-14.6-26.4-26.1-36.1c-12.4-5.9-13.4-17.8-22.1-19.9c-6.8,17.8,29.6,30,23.9,35.1
			c-14.5-8.9,6.8,16.7-12.4,16c0.1,13.6-26.1-8.7-2.9-2.3c16.5-9.7-13.3-21.3-18.6-30.7c-5.2-21-18.9,10.4-29.4-7
			c-1.1,9.3-22.9,16.4-20.8,30.5C279,344.8,272.6,347.3,261.1,347.1L261.1,347.1z M264.3,176.9c0.6,0.2,9.6-15.2,8.4-6
			c21.4,2.7-1.1,23.1-12.4,9.2C261.7,179.1,263,178,264.3,176.9z"/>
	</g>
</g>
<g id="Layer_1">
	<path class="st2" d="M104.4,458c0,0,81.3,41.5,223.3-62.1s15.2,17.2,15.2,17.2S199.1,535.1,104.4,458z"/>
	
		<linearGradient id="SVGID_1_" gradientUnits="userSpaceOnUse" x1="296.2607" y1="399.489" x2="453.7382" y2="549.5848" gradientTransform="matrix(0.7239 0.6899 0.6899 -0.7239 -160.5814 377.2308)">
		<stop  offset="0" style="stop-color:#F2F2F2"/>
		<stop  offset="1" style="stop-color:#CFCFCF"/>
	</linearGradient>
	<path class="st3" d="M525.2,268.5L401.2,398.6c-9.1,9.5-24.8,9.2-35.1-0.6L338,371.2c-10.3-9.9-11.4-25.5-2.3-35.1L459.7,206
		c2.5-2.6,5.4-4.5,8.7-5.6c0.4-0.1,0.8-0.3,1.2-0.4l1.8-0.5l0.1,0l75.5-20.2L531.2,256C530.6,260.6,528.6,265,525.2,268.5z"/>
	
		<linearGradient id="SVGID_2_" gradientUnits="userSpaceOnUse" x1="376.5928" y1="577.2093" x2="376.5928" y2="540.0021" gradientTransform="matrix(0.7239 0.6899 0.6899 -0.7239 -160.5814 377.2308)">
		<stop  offset="5.300000e-03" style="stop-color:#7A7A7A"/>
		<stop  offset="1" style="stop-color:#999999"/>
	</linearGradient>
	<polygon class="st4" points="477.5,188 543,250.4 517.3,277.4 451.9,215 	"/>
	
		<linearGradient id="SVGID_3_" gradientUnits="userSpaceOnUse" x1="410.3541" y1="546.3966" x2="339.95" y2="620.2632" gradientTransform="matrix(0.7239 0.6899 0.6899 -0.7239 -160.5814 377.2308)">
		<stop  offset="0" style="stop-color:#FF5E89"/>
		<stop  offset="1" style="stop-color:#FBB5B9"/>
	</linearGradient>
	<path class="st5" d="M563.1,162.8c-12.5,3-24.9,6.6-37.4,10c-2.1,0.6-4,1.1-6,1.6c-16.8,4.5-32.1,8.6-32.1,8.6l-0.1,0l-1.8,0.5
		c-0.4,0.1-0.7,0.3-1.1,0.5c-3.2,1.1-6.1,3.1-8.6,5.7l-12.1,12.7l65.5,62.4l12.1-12.7c3.4-3.5,5.2-8,5.9-12.5c0,0,3.2-15.6,6.7-32.7
		c0.4-2,0.8-4.1,1.2-6.2C558.1,188.4,559.4,175.2,563.1,162.8L563.1,162.8z"/>
	
		<linearGradient id="SVGID_4_" gradientUnits="userSpaceOnUse" x1="376.1599" y1="475.7761" x2="376.1599" y2="516.9298" gradientTransform="matrix(0.7239 0.6899 0.6899 -0.7239 -160.5814 377.2308)">
		<stop  offset="0" style="stop-color:#474747"/>
		<stop  offset="0.5381" style="stop-color:#545454"/>
		<stop  offset="1" style="stop-color:#636363"/>
	</linearGradient>
	<path class="st6" d="M468.4,262.6c8.6,8.2,9.2,21.5,1.3,29.7c-7.8,8.2-21.1,8.3-29.7,0.1c-8.6-8.2-9.2-21.5-1.3-29.7
		C446.5,254.4,459.8,254.4,468.4,262.6z"/>
	
		<linearGradient id="SVGID_5_" gradientUnits="userSpaceOnUse" x1="376.7051" y1="443.8723" x2="376.7051" y2="462.1987" gradientTransform="matrix(0.7239 0.6899 0.6899 -0.7239 -160.5814 377.2308)">
		<stop  offset="0" style="stop-color:#B0B0B0"/>
		<stop  offset="0.4706" style="stop-color:#A3A3A3"/>
		<stop  offset="1" style="stop-color:#8F8F8F"/>
	</linearGradient>
	<path class="st7" d="M431,302.6c4,3.8,4.4,9.8,0.9,13.5c-3.5,3.7-9.6,3.6-13.5-0.2c-4-3.8-4.4-9.8-0.9-13.5
		C420.9,298.7,427,298.8,431,302.6z"/>
	<g>
		
			<linearGradient id="SVGID_6_" gradientUnits="userSpaceOnUse" x1="251.3687" y1="356.2046" x2="357.1218" y2="457.0005" gradientTransform="matrix(0.7239 0.6899 0.6899 -0.7239 -160.5814 377.2308)">
			<stop  offset="0" style="stop-color:#FF5E89"/>
			<stop  offset="1" style="stop-color:#FBB5B9"/>
		</linearGradient>
		<path class="st8" d="M343.3,262.1c0,0-13.2,0.4-32.4,19.1c-19.2,18.6-43.7,45.2-43.7,45.2l80.1-1.6l62.4-65.4L343.3,262.1z"/>
		
			<linearGradient id="SVGID_7_" gradientUnits="userSpaceOnUse" x1="257.7352" y1="343.6917" x2="304.4602" y2="388.2265" gradientTransform="matrix(0.7239 0.6899 0.6899 -0.7239 -160.5814 377.2308)">
			<stop  offset="0" style="stop-color:#616161"/>
			<stop  offset="0.3614" style="stop-color:#6E6E6E"/>
			<stop  offset="1" style="stop-color:#8F8F8F"/>
		</linearGradient>
		<path class="st9" d="M326.2,285.4c2.2-2.3,1.9-6.7-1.2-9.6l-0.4-0.3c-3.1-2.9-7.8-3.4-10.1-1.1l-50.4,52.8c-2.2,2.3-1.1,6.7,2,9.6
			l0.4,0.3c3.1,2.9,7,3.5,9.3,1.2L326.2,285.4z"/>
	</g>
	
		<linearGradient id="SVGID_8_" gradientUnits="userSpaceOnUse" x1="377.5172" y1="231.2256" x2="377.5172" y2="341.4755" gradientTransform="matrix(0.7239 0.6899 0.6899 -0.7239 -160.5814 377.2308)">
		<stop  offset="0" style="stop-color:#F15A24"/>
		<stop  offset="1" style="stop-color:#FBB03B"/>
	</linearGradient>
	<path class="st10" d="M302.2,417.5c-19.6,20.5-29.4,53.4-29.4,53.4s31.1-12.6,50.7-33.1c19.6-20.5,30.6-41.7,24.8-47.3
		C342.4,384.9,321.8,397,302.2,417.5z"/>
	
		<linearGradient id="SVGID_9_" gradientUnits="userSpaceOnUse" x1="377.5176" y1="263.6215" x2="377.5176" y2="333.7775" gradientTransform="matrix(0.7239 0.6899 0.6899 -0.7239 -160.5814 377.2308)">
		<stop  offset="0" style="stop-color:#FBB03B"/>
		<stop  offset="1" style="stop-color:#FCEE21"/>
	</linearGradient>
	<path class="st11" d="M313,412.7c-12.4,13.1-18,34.6-18,34.6s20.4-7.5,32.8-20.5c12.4-13.1,19.2-26.8,15.1-30.7
		S325.5,399.6,313,412.7z"/>
	<g>
		
			<linearGradient id="SVGID_10_" gradientUnits="userSpaceOnUse" x1="100.4672" y1="383.891" x2="54.0744" y2="428.1092" gradientTransform="matrix(-0.7239 -0.6899 0.6899 -0.7239 220.6288 740.5718)">
			<stop  offset="0" style="stop-color:#FF5E89"/>
			<stop  offset="1" style="stop-color:#FBB5B9"/>
		</linearGradient>
		<path class="st12" d="M475.3,386.8c0,0,0,13-17.6,33.2c-17.7,20.1-42.9,46-42.9,46l-2-79.9l62.4-65.4L475.3,386.8z"/>
		
			<linearGradient id="SVGID_11_" gradientUnits="userSpaceOnUse" x1="78.8795" y1="344.4505" x2="32.4659" y2="388.6885" gradientTransform="matrix(-0.7239 -0.6899 0.6899 -0.7239 220.6288 740.5718)">
			<stop  offset="0" style="stop-color:#616161"/>
			<stop  offset="0.3614" style="stop-color:#6E6E6E"/>
			<stop  offset="1" style="stop-color:#8F8F8F"/>
		</linearGradient>
		<path class="st13" d="M453.1,405.2c2.2-2.3,5.5-2.2,8.6,0.7l0.4,0.3c3.1,2.9,4.4,7.2,2.2,9.6l-50.4,52.8c-2.2,2.3-6.8,1.4-9.8-1.5
			l-0.4-0.3c-3.1-2.9-3.2-6.4-1-8.7L453.1,405.2z"/>
	</g>
	
		<linearGradient id="SVGID_12_" gradientUnits="userSpaceOnUse" x1="376.5931" y1="324.4571" x2="376.5931" y2="353.528" gradientTransform="matrix(0.7239 0.6899 0.6899 -0.7239 -160.5814 377.2308)">
		<stop  offset="0" style="stop-color:#9E9E9E"/>
		<stop  offset="1" style="stop-color:#545454"/>
	</linearGradient>
	<path class="st14" d="M365.3,416.4c-3.8,4-9.7,4.6-13.3,1.1l-31.7-30.2c-3.6-3.5-3.9-9.9-0.1-13.9l0.1-0.1c3.8-4,20.9-5,24.5-1.6
		l20.7,19.5c3.6,3.5,3.7,21-0.1,25L365.3,416.4L365.3,416.4z"/>
	
		<linearGradient id="SVGID_13_" gradientUnits="userSpaceOnUse" x1="376.0719" y1="348.1927" x2="376.0719" y2="390.5319" gradientTransform="matrix(0.7239 0.6899 0.6899 -0.7239 -160.5814 377.2308)">
		<stop  offset="0" style="stop-color:#737373"/>
		<stop  offset="1" style="stop-color:#8A8A8A"/>
	</linearGradient>
	<path class="st15" d="M365.9,398c9.8,9.4,24.1,10.6,33.3,2.5l-13.5-12.9l7.5-7.8c4-4.2,3.3-11.2-1.2-15.5l-19.9-19
		c-4.5-4.3-11.6-4.7-15.6-0.5l-7.5,7.8l-15.2-14.5c-7.7,9.5-5.8,23.7,4.1,33.1L365.9,398z"/>
</g>
</svg>
