<?xml version="1.0" encoding="utf-8"?>
<!-- Generator: Adobe Illustrator 16.0.0, SVG Export Plug-In . SVG Version: 6.00 Build 0)  -->
<!DOCTYPE svg PUBLIC "-//W3C//DTD SVG 1.1//EN" "http://www.w3.org/Graphics/SVG/1.1/DTD/svg11.dtd">
<svg version="1.1" id="Layer_1" xmlns="http://www.w3.org/2000/svg" xmlns:xlink="http://www.w3.org/1999/xlink" x="0px" y="0px"
	 width="700px" height="700px" viewBox="0 0 700 700" enable-background="new 0 0 700 700" xml:space="preserve">
<linearGradient id="SVGID_1_" gradientUnits="userSpaceOnUse" x1="312.8247" y1="489.8174" x2="312.8247" y2="48.4028">
	<stop  offset="0" style="stop-color:#F2F2F2"/>
	<stop  offset="1" style="stop-color:#CFCFCF"/>
</linearGradient>
<path fill="url(#SVGID_1_)" d="M383.374,172.47v280.285c0,20.466-18.053,37.063-40.314,37.063h-60.47
	c-22.261,0-40.314-16.597-40.314-37.063V172.47c0-5.583,1.349-10.887,3.755-15.636c0.291-0.591,0.605-1.169,0.945-1.737l1.574-2.49
	l0.076-0.116l63.456-104.088l64.591,103.59C380.904,157.853,383.374,164.895,383.374,172.47z"/>
<linearGradient id="SVGID_2_" gradientUnits="userSpaceOnUse" x1="313.4995" y1="133" x2="313.4995" y2="191">
	<stop  offset="0.0053" style="stop-color:#7A7A7A"/>
	<stop  offset="1" style="stop-color:#999999"/>
</linearGradient>
<rect x="243" y="133" opacity="0.6" fill="url(#SVGID_2_)" width="141" height="58"/>
<linearGradient id="SVGID_3_" gradientUnits="userSpaceOnUse" x1="313.5005" y1="164" x2="313.5005" y2="12.4985">
	<stop  offset="0" style="stop-color:#6CB3B9"/>
	<stop  offset="1" style="stop-color:#6CE0B9"/>
</linearGradient>
<path fill="url(#SVGID_3_)" d="M312.392,12.499c-10.906,16.796-20.984,34.169-31.391,51.491c-1.726,2.83-3.396,5.57-5.082,8.334
	c-14.135,23.186-26.985,44.263-26.985,44.263l-0.075,0.116l-1.575,2.49c-0.34,0.568-0.449,1.147-0.738,1.737
	c-2.406,4.748-3.548,10.053-3.548,15.636V164h141v-27.434c0-7.575-2.627-14.617-6.859-20.478c0,0-13.205-20.977-27.558-44.051
	c-1.71-2.751-3.486-5.478-5.238-8.294C334.32,46.667,321.644,30.453,312.392,12.499L312.392,12.499z"/>
<linearGradient id="SVGID_4_" gradientUnits="userSpaceOnUse" x1="312.8252" y1="291.1182" x2="312.8252" y2="226.9678">
	<stop  offset="0" style="stop-color:#474747"/>
	<stop  offset="0.5381" style="stop-color:#545454"/>
	<stop  offset="1" style="stop-color:#636363"/>
</linearGradient>
<ellipse fill="url(#SVGID_4_)" cx="312.825" cy="259.042" rx="33.423" ry="32.076"/>
<linearGradient id="SVGID_5_" gradientUnits="userSpaceOnUse" x1="313.6753" y1="340.8511" x2="313.6753" y2="312.2837">
	<stop  offset="0" style="stop-color:#B0B0B0"/>
	<stop  offset="0.4706" style="stop-color:#A3A3A3"/>
	<stop  offset="1" style="stop-color:#8F8F8F"/>
</linearGradient>
<ellipse fill="url(#SVGID_5_)" cx="313.675" cy="326.567" rx="15.537" ry="14.284"/>
<g>
	<linearGradient id="SVGID_6_" gradientUnits="userSpaceOnUse" x1="198.5337" y1="515.3525" x2="198.5337" y2="280.623">
		<stop  offset="0" style="stop-color:#6CB3B9"/>
		<stop  offset="1" style="stop-color:#6CE0B9"/>
	</linearGradient>
	<path fill="url(#SVGID_6_)" d="M171.108,360.926c0,0-14.387,14.671-16.066,56.366c-1.679,41.696-0.678,98.061-0.678,98.061
		L243,427.357V286.432L171.108,360.926z"/>
	<linearGradient id="SVGID_7_" gradientUnits="userSpaceOnUse" x1="164.5" y1="528" x2="164.5" y2="396">
		<stop  offset="0" style="stop-color:#616161"/>
		<stop  offset="0.3614" style="stop-color:#6E6E6E"/>
		<stop  offset="1" style="stop-color:#8F8F8F"/>
	</linearGradient>
	<path fill="url(#SVGID_7_)" d="M177,405.582c0-5.045-5.13-9.582-11.703-9.582h-0.768c-6.572,0-12.529,4.537-12.529,9.582v113.763
		c0,5.045,5.957,8.655,12.529,8.655h0.768c6.573,0,11.703-3.61,11.703-8.655V405.582z"/>
</g>
<linearGradient id="SVGID_8_" gradientUnits="userSpaceOnUse" x1="314.9409" y1="672.333" x2="314.9409" y2="500.4707">
	<stop  offset="0" style="stop-color:#F15A24"/>
	<stop  offset="1" style="stop-color:#FBB03B"/>
</linearGradient>
<path fill="url(#SVGID_8_)" d="M292,580.471c0,44.183,24.333,91.862,24.333,91.862s21.549-47.68,21.549-91.862s-10.271-80-22.941-80
	C302.271,500.471,292,536.288,292,580.471z"/>
<linearGradient id="SVGID_9_" gradientUnits="userSpaceOnUse" x1="314.9414" y1="621.833" x2="314.9414" y2="512.4707">
	<stop  offset="0" style="stop-color:#FBB03B"/>
	<stop  offset="1" style="stop-color:#FCEE21"/>
</linearGradient>
<path opacity="0.6" fill="url(#SVGID_9_)" d="M299,563.377c0,28.115,16.909,58.456,16.909,58.456s14.974-30.341,14.974-58.456
	c0-28.114-7.138-50.906-15.941-50.906S299,535.263,299,563.377z"/>
<g>
	
		<linearGradient id="SVGID_10_" gradientUnits="userSpaceOnUse" x1="239.4976" y1="514.1963" x2="239.4975" y2="279.4648" gradientTransform="matrix(-1 0 0 1 666.6289 0)">
		<stop  offset="0" style="stop-color:#6CB3B9"/>
		<stop  offset="1" style="stop-color:#6CE0B9"/>
	</linearGradient>
	<path fill="url(#SVGID_10_)" d="M454.283,359.768c0,0,14.083,14.671,15.762,56.366c1.681,41.695,1.134,98.062,1.134,98.062
		L383,426.2V285.274L454.283,359.768z"/>
	
		<linearGradient id="SVGID_11_" gradientUnits="userSpaceOnUse" x1="205.6294" y1="527.001" x2="205.6294" y2="396.001" gradientTransform="matrix(-1 0 0 1 666.6289 0)">
		<stop  offset="0" style="stop-color:#616161"/>
		<stop  offset="0.3614" style="stop-color:#6E6E6E"/>
		<stop  offset="1" style="stop-color:#8F8F8F"/>
	</linearGradient>
	<path fill="url(#SVGID_11_)" d="M449,404.424c0-5.045,3.914-8.424,10.486-8.424h0.767c6.573,0,12.747,3.379,12.747,8.424v113.763
		c0,5.046-6.174,8.813-12.747,8.813h-0.767c-6.572,0-10.486-3.768-10.486-8.813V404.424z"/>
</g>
<linearGradient id="SVGID_12_" gradientUnits="userSpaceOnUse" x1="313.5005" y1="527" x2="313.5005" y2="481.6832">
	<stop  offset="0" style="stop-color:#9E9E9E"/>
	<stop  offset="1" style="stop-color:#545454"/>
</linearGradient>
<path fill="url(#SVGID_12_)" d="M362,511.399c0,8.619-5.972,15.601-13.815,15.601h-68.179c-7.844,0-15.006-6.981-15.006-15.601
	v-0.245c0-8.62,18.128-28.099,25.972-28.099l44.284-0.251c7.844,0,26.745,19.729,26.745,28.35V511.399z"/>
<linearGradient id="SVGID_13_" gradientUnits="userSpaceOnUse" x1="312.6885" y1="490" x2="312.6885" y2="424">
	<stop  offset="0" style="stop-color:#737373"/>
	<stop  offset="1" style="stop-color:#8A8A8A"/>
</linearGradient>
<path fill="url(#SVGID_13_)" d="M342.923,490c21.2,0,38.571-14,40.18-33H354v-16.859c0-8.956-8.264-16.141-18.005-16.141h-42.833
	c-9.741,0-18.162,7.185-18.162,16.141V457h-32.727c1.609,19,18.98,33,40.18,33H342.923z"/>
</svg>
