<?xml version="1.0" encoding="utf-8"?>
<!-- Generator: Adobe Illustrator 16.0.0, SVG Export Plug-In . SVG Version: 6.00 Build 0)  -->
<!DOCTYPE svg PUBLIC "-//W3C//DTD SVG 1.1//EN" "http://www.w3.org/Graphics/SVG/1.1/DTD/svg11.dtd">
<svg version="1.1" xmlns="http://www.w3.org/2000/svg" xmlns:xlink="http://www.w3.org/1999/xlink" x="0px" y="0px"
	 width="1078.893px" height="1078.893px" viewBox="0 0 1078.893 1078.893" enable-background="new 0 0 1078.893 1078.893"
	 xml:space="preserve">
<g id="Layer_2">
</g>
<g id="Layer_3">
</g>
<g id="Layer_4">
	
		<linearGradient id="SVGID_1_" gradientUnits="userSpaceOnUse" x1="778.5684" y1="216.2188" x2="804.859" y2="189.9281" gradientTransform="matrix(0.9948 0.1015 -0.1015 0.9948 20.8979 -81.75)">
		<stop  offset="0" style="stop-color:#FFFFFF"/>
		<stop  offset="1" style="stop-color:#EBEBEB"/>
	</linearGradient>
	<path fill="url(#SVGID_1_)" d="M826.432,225.357c-0.098,1.056-0.413,1.978-0.975,2.755c-0.012,0.019-0.023,0.038-0.036,0.057
		c-4.891,6.658-25.643-0.294-46.354-15.515c-20.35-14.942-33.092-32.324-28.887-39.243c0.072-0.124,0.154-0.246,0.236-0.358
		c1.085-1.478,2.958-2.281,5.44-2.48c8.673-0.673,24.804,6.159,40.904,17.994C815.035,201.98,827.158,217.35,826.432,225.357z"/>
	
		<linearGradient id="SVGID_2_" gradientUnits="userSpaceOnUse" x1="759.5098" y1="157.9873" x2="866.5088" y2="157.9873" gradientTransform="matrix(0.9948 0.1015 -0.1015 0.9948 20.8979 -81.75)">
		<stop  offset="0" style="stop-color:#FFFFFF"/>
		<stop  offset="1" style="stop-color:#EBEBEB"/>
	</linearGradient>
	<line fill="url(#SVGID_2_)" x1="863.643" y1="195.308" x2="763.715" y2="120.532"/>
	
		<linearGradient id="SVGID_3_" gradientUnits="userSpaceOnUse" x1="782.5068" y1="155.1138" x2="857.459" y2="155.1138" gradientTransform="matrix(0.9948 0.1015 -0.1015 0.9948 20.8979 -81.75)">
		<stop  offset="0" style="stop-color:#FFFFFF"/>
		<stop  offset="1" style="stop-color:#EBEBEB"/>
	</linearGradient>
	<path fill="url(#SVGID_3_)" d="M858.246,136.614c-4.252-7.396-19.424-16.874-27.159-20.267
		c-12.478-5.473-17.164,3.921-19.771,7.529l-27.842,38.537c-1.339,1.853-1.606,4.222-0.963,6.532
		c5.785,1.228,11.651,3.44,17.288,6.693c9.662,5.575,17.092,13.29,21.687,21.67c2.009-0.258,3.799-1.2,4.971-2.821l27.844-38.538
		C856.905,152.342,862.639,144.251,858.246,136.614z"/>
	
		<linearGradient id="SVGID_4_" gradientUnits="userSpaceOnUse" x1="691.7588" y1="107.2783" x2="788.0938" y2="107.2783" gradientTransform="matrix(0.9948 0.1015 -0.1015 0.9948 20.8979 -81.75)">
		<stop  offset="0" style="stop-color:#FFFFFF"/>
		<stop  offset="1" style="stop-color:#EBEBEB"/>
	</linearGradient>
	<polygon fill="url(#SVGID_4_)" points="775.197,154.958 698.166,95.501 717.703,45.224 793.986,105.442 	"/>
	
		<linearGradient id="SVGID_5_" gradientUnits="userSpaceOnUse" x1="848.5938" y1="210.4448" x2="944.9258" y2="210.4448" gradientTransform="matrix(0.9948 0.1015 -0.1015 0.9948 20.8979 -81.75)">
		<stop  offset="0" style="stop-color:#FFFFFF"/>
		<stop  offset="1" style="stop-color:#EBEBEB"/>
	</linearGradient>
	<polygon fill="url(#SVGID_5_)" points="920.753,273.506 843.723,214.05 863.258,163.772 939.541,223.99 	"/>
	
		<linearGradient id="SVGID_6_" gradientUnits="userSpaceOnUse" x1="756.7686" y1="197.791" x2="833.0439" y2="197.791" gradientTransform="matrix(0.9948 0.1015 -0.1015 0.9948 20.8979 -81.75)">
		<stop  offset="0" style="stop-color:#FFFFFF"/>
		<stop  offset="1" style="stop-color:#EBEBEB"/>
	</linearGradient>
	<path fill="url(#SVGID_6_)" d="M826.432,225.357c0.727-8.008-11.396-23.377-29.671-36.791
		c-16.101-11.834-32.231-18.667-40.904-17.994c12.543-4.913,29.202-3.465,44.271,5.099
		C820.735,187.383,831.433,208.458,826.432,225.357z"/>
</g>
</svg>
