<?xml version="1.0" encoding="utf-8"?>
<!-- Generator: Adobe Illustrator 16.0.0, SVG Export Plug-In . SVG Version: 6.00 Build 0)  -->
<!DOCTYPE svg PUBLIC "-//W3C//DTD SVG 1.1//EN" "http://www.w3.org/Graphics/SVG/1.1/DTD/svg11.dtd">
<svg version="1.1" id="Layer_1" xmlns="http://www.w3.org/2000/svg" xmlns:xlink="http://www.w3.org/1999/xlink" x="0px" y="0px"
	 width="867.412px" height="597.674px" viewBox="0 0 867.412 597.674" enable-background="new 0 0 867.412 597.674"
	 xml:space="preserve">
<linearGradient id="SVGID_1_" gradientUnits="userSpaceOnUse" x1="390.9121" y1="372.9595" x2="476.5009" y2="224.7154">
	<stop  offset="0" style="stop-color:#FF4A4A"/>
	<stop  offset="1" style="stop-color:#FF8B38"/>
</linearGradient>
<circle opacity="0.8" fill="url(#SVGID_1_)" cx="433.706" cy="298.836" r="85.575"/>
<g>
	
		<ellipse fill="none" stroke="#CCCCCC" stroke-width="2" stroke-miterlimit="10" cx="433.706" cy="302.837" rx="229.259" ry="160.232"/>
	
		<ellipse fill="none" stroke="#CCCCCC" stroke-width="2" stroke-miterlimit="10" cx="433.707" cy="302.838" rx="176.471" ry="123.338"/>
	
		<ellipse fill="none" stroke="#CCCCCC" stroke-width="2" stroke-miterlimit="10" cx="433.705" cy="302.837" rx="282.044" ry="197.126"/>
	
		<ellipse fill="none" stroke="#CCCCCC" stroke-width="2" stroke-miterlimit="10" cx="433.705" cy="302.837" rx="334.831" ry="234.02"/>
	
		<ellipse fill="none" stroke="#CCCCCC" stroke-width="2" stroke-miterlimit="10" cx="433.706" cy="302.836" rx="387.619" ry="270.914"/>
</g>
<linearGradient id="SVGID_2_" gradientUnits="userSpaceOnUse" x1="190.248" y1="537.0933" x2="210.7517" y2="501.5799">
	<stop  offset="0" style="stop-color:#B57400"/>
	<stop  offset="1" style="stop-color:#92FFFF"/>
</linearGradient>
<circle fill="url(#SVGID_2_)" cx="200.5" cy="519.337" r="20.5"/>
<linearGradient id="SVGID_3_" gradientUnits="userSpaceOnUse" x1="196" y1="256.5874" x2="233.5" y2="256.5874">
	<stop  offset="0" style="stop-color:#6D564A"/>
	<stop  offset="1" style="stop-color:#B08B65"/>
</linearGradient>
<circle fill="url(#SVGID_3_)" cx="214.75" cy="256.587" r="18.75"/>
<linearGradient id="SVGID_4_" gradientUnits="userSpaceOnUse" x1="426.748" y1="78.2983" x2="438.25" y2="58.3764">
	<stop  offset="0" style="stop-color:#858585"/>
	<stop  offset="1" style="stop-color:#93278F"/>
</linearGradient>
<circle fill="url(#SVGID_4_)" cx="432.5" cy="68.337" r="11.5"/>
<linearGradient id="SVGID_5_" gradientUnits="userSpaceOnUse" x1="359.3789" y1="566.687" x2="377.3545" y2="566.687" gradientTransform="matrix(-0.8571 -0.5151 0.5151 -0.8571 434.6455 1100.5728)">
	<stop  offset="0" style="stop-color:#6DC94A"/>
	<stop  offset="1" style="stop-color:#B08B65"/>
</linearGradient>
<path fill="url(#SVGID_5_)" d="M418.537,429.73c2.636-4.385,1.324-10.014-2.931-12.571s-9.841-1.074-12.478,3.313
	c-2.636,4.386-1.324,10.015,2.931,12.571C410.315,435.6,415.901,434.118,418.537,429.73z"/>
<g>
	
		<image overflow="visible" opacity="0.66" width="334" height="332" xlink:href="4100DE86.png"  transform="matrix(0.24 0 0 0.24 674.3623 295.7065)">
	</image>
	<g>
		
			<linearGradient id="SVGID_6_" gradientUnits="userSpaceOnUse" x1="649.6494" y1="227.5503" x2="668.5052" y2="194.891" gradientTransform="matrix(1 0 0 -1 52.3398 544.7148)">
			<stop  offset="0" style="stop-color:#38E5BD"/>
			<stop  offset="0.3342" style="stop-color:#59B5D5"/>
			<stop  offset="0.7843" style="stop-color:#827AF3"/>
			<stop  offset="1" style="stop-color:#9263FF"/>
		</linearGradient>
		<path fill="url(#SVGID_6_)" d="M730.396,333.491v0.009c0,4.98-1.93,9.506-5.126,12.869c-3.466,3.644-8.371,5.921-13.829,5.923
			c-1.104,0-2.183-0.093-3.237-0.272c-5.08-0.864-9.47-3.722-12.315-7.733c-0.103-0.146-0.203-0.29-0.302-0.438
			c-0.098-0.149-0.194-0.3-0.29-0.452c-1.325-2.103-2.247-4.483-2.643-7.031c-0.003-0.017-0.033-0.032-0.036-0.048
			c-0.14-0.916-0.256-1.855-0.256-2.811V333.5c0-10.377,8.547-18.791,19.038-18.793c3.859-0.001,7.475,1.137,10.471,3.092
			c0.003,0.001-0.011,0.004-0.01,0.004c3.782,2.472,6.585,6.244,7.849,10.671c0,0.002,0,0.002,0,0.002
			C730.168,330.072,730.396,331.754,730.396,333.491z"/>
	</g>
</g>
<g>
	
		<image overflow="visible" opacity="0.66" width="401" height="269" xlink:href="4100DE8A.png"  transform="matrix(0.24 0 0 0.24 667.7441 303.397)">
	</image>
	<g>
		<g>
			
				<linearGradient id="SVGID_7_" gradientUnits="userSpaceOnUse" x1="522.9609" y1="186.3804" x2="536.2566" y2="163.3516" gradientTransform="matrix(1.0995 -0.3776 -0.3748 -1.0913 195.9862 724.4128)">
				<stop  offset="0" style="stop-color:#00BF87"/>
				<stop  offset="0.478" style="stop-color:#007C79"/>
				<stop  offset="1" style="stop-color:#00366A"/>
			</linearGradient>
			<path fill="url(#SVGID_7_)" d="M739.652,324.356c-0.455-1.32-2.117-1.959-5.08-1.959c-1.939,0-4.413,0.275-7.238,0.788
				c0.371,0.557,0.711,1.135,1.022,1.729c2.415-0.414,4.53-0.634,6.216-0.634c2.975,0,3.292,0.682,3.294,0.688
				c0.042,0.126-0.076,0.672-1.129,1.671c-1.034,0.984-2.708,2.155-4.843,3.381c-0.519,0.298-1.059,0.599-1.624,0.9
				c-4.357,2.332-9.99,4.72-16.094,6.816c-7.219,2.48-14.21,4.229-19.341,4.884c-1.464,0.186-2.778,0.284-3.901,0.284
				c-2.975,0-3.291-0.68-3.293-0.686c-0.042-0.126,0.074-0.671,1.127-1.672c0.916-0.873,2.337-1.89,4.135-2.965
				c-0.146-0.65-0.258-1.313-0.332-1.986c-5.167,2.985-7.365,5.365-6.716,7.252c0.452,1.321,2.115,1.98,5.079,1.98
				c1.418,0,3.121-0.149,5.038-0.432c5.174-0.759,11.909-2.483,18.816-4.856c5.864-2.015,11.313-4.313,15.651-6.574
				c0.844-0.439,1.642-0.875,2.396-1.31C738.074,328.641,740.306,326.255,739.652,324.356z"/>
		</g>
	</g>
</g>
</svg>
